<svg width="414" height="546" viewBox="0 0 414 546" fill="none" xmlns="http://www.w3.org/2000/svg">
<path fill-rule="evenodd" clip-rule="evenodd" d="M707.667 337.639L694.668 347.547C681.668 357.454 655.08 377.269 629.081 387.177C602.492 397.084 576.494 397.084 549.905 397.084C523.907 397.084 497.318 397.084 471.319 387.177C445.321 377.269 418.732 357.454 392.734 372.315C366.145 387.177 340.147 436.715 313.558 451.576C287.559 466.437 260.97 446.622 234.972 441.668C208.974 436.715 182.385 446.622 156.387 431.761C129.798 416.899 103.799 377.269 77.2103 362.408C51.2121 347.547 24.623 357.454 11.6239 362.408L-1.37518 367.362V545.698H11.6239C24.623 545.698 51.2121 545.698 77.2103 545.698C103.799 545.698 129.798 545.698 156.387 545.698C182.385 545.698 208.974 545.698 234.972 545.698C260.97 545.698 287.559 545.698 313.558 545.698C340.147 545.698 366.145 545.698 392.734 545.698C418.732 545.698 445.321 545.698 471.319 545.698C497.318 545.698 523.907 545.698 549.905 545.698C576.494 545.698 602.492 545.698 629.081 545.698C655.08 545.698 681.668 545.698 694.668 545.698H707.667V337.639Z" fill="#0099FF" fill-opacity="0.3"/>
<path fill-rule="evenodd" clip-rule="evenodd" d="M-600 329.686L-524.792 317.685C-449.583 305.685 -299.167 281.683 -148.75 197.679C1.66669 113.674 152.083 -30.3339 302.5 5.66811C452.917 41.6701 603.333 257.682 753.75 317.685C904.167 377.689 1054.58 281.683 1129.79 233.681L1205 185.678V545.698H1129.79C1054.58 545.698 904.167 545.698 753.75 545.698C603.333 545.698 452.917 545.698 302.5 545.698C152.083 545.698 1.66669 545.698 -148.75 545.698C-299.167 545.698 -449.583 545.698 -524.792 545.698H-600V329.686Z" fill="#FFEBC5" fill-opacity="0.3"/>
<path fill-rule="evenodd" clip-rule="evenodd" d="M-50.6522 444.507L-24.1224 402.345C1.4925 360.182 53.6372 275.857 105.782 275.857C158.841 275.857 210.986 360.182 263.131 334.885C315.275 309.587 367.42 174.667 419.565 132.504C471.71 90.3412 524.769 140.936 576.914 174.667C629.059 208.397 681.203 225.262 733.348 267.424C785.493 309.587 837.637 377.047 890.697 351.75C942.841 326.452 994.986 208.397 1020.6 149.369L1047.13 90.3412V545.698H1020.6C994.986 545.698 942.841 545.698 890.697 545.698C837.637 545.698 785.493 545.698 733.348 545.698C681.203 545.698 629.059 545.698 576.914 545.698C524.769 545.698 471.71 545.698 419.565 545.698C367.42 545.698 315.275 545.698 263.131 545.698C210.986 545.698 158.841 545.698 105.782 545.698C53.6372 545.698 1.4925 545.698 -24.1224 545.698H-50.6522V444.507Z" fill="#49B6FF" fill-opacity="0.3"/>
</svg>
