<svg width="414" height="112" viewBox="0 0 414 112" fill="none" xmlns="http://www.w3.org/2000/svg">
<path fill-rule="evenodd" clip-rule="evenodd" d="M0 0H13.8C27.6 0 55.2 0 82.8 11.6667C110.4 23.3333 138 46.6667 165.6 46.6667C193.2 46.6667 220.8 23.3333 248.4 14C276 4.66667 303.6 9.33333 331.2 16.3333C358.8 23.3333 386.4 32.6667 400.2 37.3333L414 42V112H400.2C386.4 112 358.8 112 331.2 112C303.6 112 276 112 248.4 112C220.8 112 193.2 112 165.6 112C138 112 110.4 112 82.8 112C55.2 112 27.6 112 13.8 112H0V0Z" fill="#0099FF"/>
</svg>
