<svg width="414" height="143" viewBox="0 0 414 143" fill="none" xmlns="http://www.w3.org/2000/svg">
<path fill-rule="evenodd" clip-rule="evenodd" d="M-154 -27L-114 15C-74 57 6 141 86 135C166 129 246 33 326 -27C406 -87 486 -111 566 -111C646 -111 726 -87 806 -75C886 -63 966 -63 1006 -63H1046V-135H1006C966 -135 886 -135 806 -135C726 -135 646 -135 566 -135C486 -135 406 -135 326 -135C246 -135 166 -135 86 -135C6 -135 -74 -135 -114 -135H-154V-27Z" fill="#FFEBC5"/>
<path fill-rule="evenodd" clip-rule="evenodd" d="M-31 143L-7.20833 123.625C16.5833 104.25 64.1667 65.5 111.75 57.75C159.333 50 206.917 73.25 254.5 61.625C302.083 50 349.667 3.49999 397.25 3.49999C444.833 3.49999 492.417 50 516.208 73.25L540 96.5V-43H516.208C492.417 -43 444.833 -43 397.25 -43C349.667 -43 302.083 -43 254.5 -43C206.917 -43 159.333 -43 111.75 -43C64.1667 -43 16.5833 -43 -7.20833 -43H-31V143Z" fill="#49B6FF"/>
</svg>
