<svg width="414" height="143" viewBox="0 0 414 143" fill="none" xmlns="http://www.w3.org/2000/svg">
<path fill-rule="evenodd" clip-rule="evenodd" d="M-31 143L-7.20833 123.625C16.5833 104.25 64.1667 65.5 111.75 57.75C159.333 50 206.917 73.25 254.5 61.625C302.083 50 349.667 3.5 397.25 3.5C444.833 3.5 492.417 50 516.208 73.25L540 96.5V-43H516.208C492.417 -43 444.833 -43 397.25 -43C349.667 -43 302.083 -43 254.5 -43C206.917 -43 159.333 -43 111.75 -43C64.1667 -43 16.5833 -43 -7.20833 -43H-31V143Z" fill="#49B6FF"/>
</svg>
