<svg width="414" height="196" viewBox="0 0 414 196" fill="none" xmlns="http://www.w3.org/2000/svg">
<path fill-rule="evenodd" clip-rule="evenodd" d="M476 0L436 42C396 84 316 168 236 162C156 156 76 60 -4 0C-84 -60 -164 -84 -244 -84C-324 -84 -404 -60 -484 -48C-564 -36 -644 -36 -684 -36H-724V-108H-684C-644 -108 -564 -108 -484 -108C-404 -108 -324 -108 -244 -108C-164 -108 -84 -108 -4 -108C76 -108 156 -108 236 -108C316 -108 396 -108 436 -108H476V0Z" fill="#FFEBC5" fill-opacity="0.5"/>
<path fill-rule="evenodd" clip-rule="evenodd" d="M476 196L452.208 176.625C428.417 157.25 380.833 118.5 333.25 110.75C285.667 103 238.083 126.25 190.5 114.625C142.917 103 95.3333 56.5 47.75 56.5C0.166656 56.5 -47.4167 103 -71.2084 126.25L-95 149.5V10H-71.2084C-47.4167 10 0.166656 10 47.75 10C95.3333 10 142.917 10 190.5 10C238.083 10 285.667 10 333.25 10C380.833 10 428.417 10 452.208 10H476V196Z" fill="#49B6FF" fill-opacity="0.5"/>
</svg>
