<svg width="352" height="78" viewBox="0 0 352 78" fill="none" xmlns="http://www.w3.org/2000/svg">
<path d="M51.62 8.83C52.3167 9.33666 53.0133 9.43166 53.71 9.115C54.85 9.115 55.8317 9.495 56.655 10.255C56.465 11.585 56.2433 12.82 55.99 13.96C56.4333 14.2133 56.4967 14.53 56.18 14.91C55.9267 15.2267 55.9267 15.5433 56.18 15.86C55.9267 15.9867 55.895 16.1767 56.085 16.43C56.3383 16.81 56.37 17.19 56.18 17.57C55.8633 17.8233 55.8633 18.1083 56.18 18.425C56.6233 18.805 57.035 18.995 57.415 18.995C57.6683 19.2483 57.9217 19.3117 58.175 19.185C58.4283 18.995 58.745 18.9317 59.125 18.995C62.735 19.185 66.44 19.28 70.24 19.28C70.43 19.0267 70.7467 18.9633 71.19 19.09C71.5067 19.4067 71.855 19.375 72.235 18.995C73.1217 19.4383 74.0083 19.4383 74.895 18.995C75.5917 18.9317 76.1617 18.9317 76.605 18.995C77.935 18.4883 79.075 17.6967 80.025 16.62C80.785 16.3667 81.45 16.5883 82.02 17.285V22.985C81.64 23.3017 81.5767 23.6817 81.83 24.125C82.1467 24.5683 82.02 24.98 81.45 25.36C82.0833 26.3733 81.8617 27.26 80.785 28.02C80.025 28.9067 79.1067 29.35 78.03 29.35C77.3333 29.0333 76.5417 28.9383 75.655 29.065C75.4017 29.3817 75.085 29.4767 74.705 29.35C74.3883 29.16 74.135 29.16 73.945 29.35C73.0583 29.4767 72.3933 29.4767 71.95 29.35H65.585C65.1417 29.6667 64.6667 29.6983 64.16 29.445C63.6533 29.1917 63.1783 29.2867 62.735 29.73C61.975 29.35 61.1833 29.2233 60.36 29.35C59.6 29.4767 58.7133 29.4767 57.7 29.35C57.32 29.2233 56.8767 29.2867 56.37 29.54C55.9267 29.7933 55.8 30.11 55.99 30.49C55.42 31.44 55.4833 32.3267 56.18 33.15C56.0533 34.1 55.99 35.145 55.99 36.285C56.0533 36.9183 55.9583 37.4883 55.705 37.995C56.0217 38.3117 56.0533 38.6283 55.8 38.945C55.5467 39.1983 55.61 39.4517 55.99 39.705C55.6733 40.3383 55.5783 40.94 55.705 41.51C55.895 42.0167 55.895 42.4917 55.705 42.935C56.0217 43.1883 56.0533 43.505 55.8 43.885C55.5467 44.1383 55.42 44.3917 55.42 44.645C55.8 45.025 55.895 45.4683 55.705 45.975C55.515 46.4817 55.61 46.925 55.99 47.305C56.1167 48.635 56.0217 49.9017 55.705 51.105C55.7683 51.7383 56.085 52.3083 56.655 52.815C56.655 53.4483 56.9083 53.955 57.415 54.335C58.0483 54.6517 58.4283 55 58.555 55.38C58.9983 55.6333 59.4733 55.76 59.98 55.76C60.55 55.76 61.0567 55.9183 61.5 56.235C62.0067 55.855 62.4817 55.95 62.925 56.52C64.3817 56.71 65.8383 56.805 67.295 56.805C67.485 56.425 67.7067 56.4567 67.96 56.9C68.2133 57.28 68.4983 57.2483 68.815 56.805C69.1317 57.185 69.48 57.28 69.86 57.09C70.1133 56.9 70.43 57.0267 70.81 57.47C71.57 56.9633 72.2983 56.9633 72.995 57.47C73.565 57.09 74.1033 56.995 74.61 57.185C75.2433 57.3117 75.7817 57.185 76.225 56.805C77.2383 57.0583 78.315 57.185 79.455 57.185C80.215 56.8683 80.975 56.7417 81.735 56.805C82.5583 56.8683 83.2233 56.615 83.73 56.045C84.11 54.9683 84.8067 54.5567 85.82 54.81C86.8967 55 87.1817 55.57 86.675 56.52V64.595C86.295 65.4817 85.8833 66.1783 85.44 66.685C85.1867 67.255 84.7117 67.6033 84.015 67.73C83.3817 67.7933 82.8117 67.9517 82.305 68.205C81.545 67.825 80.785 67.92 80.025 68.49C79.3917 68.11 78.7267 68.015 78.03 68.205C77.7767 67.7617 77.6183 67.6983 77.555 68.015C77.4283 68.4583 77.27 68.5217 77.08 68.205C76.6367 68.5217 76.1617 68.585 75.655 68.395C75.1483 68.1417 74.6733 68.1733 74.23 68.49C73.66 68.11 73.09 68.11 72.52 68.49C71.8867 68.11 71.3167 68.11 70.81 68.49C70.1767 68.6167 69.5117 68.6167 68.815 68.49C68.3717 68.6167 67.96 68.585 67.58 68.395C67.2633 68.1417 66.9467 68.1733 66.63 68.49C65.9333 68.11 65.1417 68.015 64.255 68.205C63.3683 68.2683 62.545 68.1417 61.785 67.825C61.595 68.1417 61.3733 68.205 61.12 68.015C60.93 67.7617 60.6767 67.6983 60.36 67.825C60.17 67.445 59.9483 67.3817 59.695 67.635C59.505 67.8883 59.315 67.8567 59.125 67.54C57.4783 67.4133 55.9267 66.8433 54.47 65.83C54.3433 66.1467 54.1217 66.1783 53.805 65.925C53.5517 65.6717 53.2983 65.45 53.045 65.26C52.1583 65.3867 51.4933 65.07 51.05 64.31C49.91 64.0567 49.0233 63.4233 48.39 62.41C47.82 61.7767 47.155 61.175 46.395 60.605C46.585 60.0983 46.5217 59.75 46.205 59.56C45.8883 59.3067 45.6983 58.9583 45.635 58.515C45.1283 57.8817 44.8117 57.2167 44.685 56.52C44.8117 56.2033 44.7483 55.8867 44.495 55.57C44.305 55.19 44.3683 54.8417 44.685 54.525C44.4317 54.2083 44.4 53.86 44.59 53.48C44.8433 53.0367 44.8433 52.6567 44.59 52.34C44.4 51.96 44.4317 51.6433 44.685 51.39L44.495 51.105C45.0017 50.4083 45.065 49.6167 44.685 48.73C44.9383 48.54 45.0017 48.3817 44.875 48.255C44.6217 47.9383 44.6533 47.7167 44.97 47.59C44.6533 47.21 44.5583 46.8933 44.685 46.64C44.875 46.26 44.875 45.9117 44.685 45.595C45.065 45.215 45.1283 44.7717 44.875 44.265C44.685 43.695 44.8117 43.3467 45.255 43.22L44.97 42.935L45.255 42.65C44.875 41.5733 44.875 40.5283 45.255 39.515C44.875 39.2617 44.8117 38.945 45.065 38.565C45.3817 38.185 45.35 37.9317 44.97 37.805C45.35 37.615 45.3817 37.3933 45.065 37.14C44.8117 36.76 44.875 36.475 45.255 36.285L44.97 36.095C45.2233 35.335 45.3183 34.5117 45.255 33.625C45.255 31.155 45.3817 28.78 45.635 26.5C45.635 25.9933 45.635 25.3283 45.635 24.505C45.635 23.6183 45.635 22.9217 45.635 22.415C45.8883 21.655 45.9833 20.7683 45.92 19.755C46.1733 18.615 46.1733 17.475 45.92 16.335C46.2367 15.8917 46.3317 15.3533 46.205 14.72C46.015 14.2133 46.0783 13.7067 46.395 13.2C46.0783 12.63 46.0783 12.06 46.395 11.49C46.1417 11.3 46.11 11.11 46.3 10.92C46.5533 10.6667 46.5217 10.445 46.205 10.255C46.6483 9.305 47.44 8.925 48.58 9.115C49.7833 9.24166 50.7967 9.14666 51.62 8.83ZM25.305 7.31C25.5583 7.69 25.8433 7.785 26.16 7.59499C26.6033 7.975 27.11 8.07 27.68 7.88C28.1867 7.81666 28.6617 7.84833 29.105 7.975C29.295 7.65833 29.5483 7.595 29.865 7.785C30.1817 7.91166 30.4033 7.84833 30.53 7.59499C31.9867 7.84833 32.8417 8.64 33.095 9.97C32.715 10.16 32.6517 10.445 32.905 10.825C33.2217 11.0783 33.19 11.3 32.81 11.49C32.8733 13.1367 32.7783 14.9417 32.525 16.905C32.4617 17.7917 32.4617 18.4883 32.525 18.995C32.715 20.325 32.62 21.56 32.24 22.7C32.5567 23.3967 32.6517 24.0617 32.525 24.695C32.4617 25.5817 32.4617 26.2783 32.525 26.785C32.335 27.0383 32.335 27.355 32.525 27.735C32.715 28.0517 32.62 28.4 32.24 28.78C32.43 29.2867 32.43 29.7617 32.24 30.205C32.43 30.9017 32.43 31.63 32.24 32.39C32.1133 33.0867 32.1133 33.72 32.24 34.29C31.9233 34.48 31.86 34.765 32.05 35.145C32.3033 35.3983 32.3033 35.62 32.05 35.81V42.175C32.1133 42.6183 32.0183 42.9983 31.765 43.315C31.575 43.5683 31.67 43.8217 32.05 44.075C32.05 44.7083 31.8917 45.215 31.575 45.595V50.44C31.575 51.5167 31.575 52.4033 31.575 53.1C31.765 53.5433 31.7333 53.8917 31.48 54.145C31.29 54.525 31.3217 54.8417 31.575 55.095C31.0683 56.425 30.91 57.8817 31.1 59.465C31.0367 59.9717 31.0683 60.51 31.195 61.08C31.4483 61.5233 31.3217 61.9667 30.815 62.41C31.2583 63.6133 31.2583 64.8167 30.815 66.02C30.815 66.9067 30.6567 67.5083 30.34 67.825C29.96 67.6983 29.6433 67.825 29.39 68.205C29.1367 68.5217 28.82 68.5217 28.44 68.205C27.7433 68.205 26.9517 68.3 26.065 68.49C25.2417 68.6167 24.4817 68.5217 23.785 68.205C23.215 68.2683 22.6133 68.1417 21.98 67.825C21.3467 67.445 21.22 67.0017 21.6 66.495C21.4733 65.8617 21.4733 65.2283 21.6 64.595C21.3467 64.405 21.2833 64.2467 21.41 64.12C21.6633 63.93 21.6317 63.74 21.315 63.55C21.6317 62.9167 21.695 62.22 21.505 61.46C21.3783 60.6367 21.4733 59.9717 21.79 59.465C21.4733 58.135 21.41 56.6783 21.6 55.095C21.4733 54.3983 21.505 53.7333 21.695 53.1C21.7583 52.4033 21.6317 51.8333 21.315 51.39C20.365 51.8967 19.4783 52.5617 18.655 53.385C18.2117 53.2583 17.8633 53.385 17.61 53.765C17.3567 54.145 17.135 54.1767 16.945 53.86C16.0583 54.62 15.0767 55.2533 14 55.76C13.4933 55.8233 13.1133 56.045 12.86 56.425C12.67 56.7417 12.3217 56.8683 11.815 56.805C11.5617 57.3117 11.15 57.565 10.58 57.565C10.0733 57.6917 9.75667 57.9133 9.63 58.23C8.93333 58.3567 8.33167 58.6417 7.825 59.085C7.38167 59.5283 6.84333 59.8133 6.21 59.94C5.07 59.56 4.405 58.8317 4.215 57.755C3.89833 56.8683 3.42333 56.0767 2.79 55.38C2.72667 54.81 2.47333 54.3983 2.03 54.145C1.58667 53.8283 1.365 53.385 1.365 52.815C0.731667 51.865 0.985 50.9783 2.125 50.155C3.20167 50.0283 4.18333 49.6483 5.07 49.015C6.84333 47.9383 8.68 47.0833 10.58 46.45C11.15 45.7533 11.7833 45.3417 12.48 45.215C13.24 45.025 13.9367 44.645 14.57 44.075C16.09 43.5683 17.3567 42.935 18.37 42.175C18.94 42.175 19.4467 41.9533 19.89 41.51C20.3333 41.0667 20.8083 40.7817 21.315 40.655C21.8217 40.0217 21.9167 39.4517 21.6 38.945C21.8533 37.805 21.9167 36.6333 21.79 35.43C21.4733 35.1133 21.4733 34.8283 21.79 34.575C22.2333 34.3217 22.2333 34.005 21.79 33.625C21.9167 33.3083 21.885 32.96 21.695 32.58C21.4417 32.3267 21.4733 32.0417 21.79 31.725C21.7267 31.345 21.7267 30.9333 21.79 30.49C22.17 30.2367 22.2333 29.9833 21.98 29.73C21.7267 29.4767 21.505 29.255 21.315 29.065C21.0617 29.255 20.7133 29.255 20.27 29.065C19.8267 28.875 19.4783 28.97 19.225 29.35C18.085 29.16 16.755 29.065 15.235 29.065C14.4117 29.1283 13.715 29.1283 13.145 29.065C12.5117 29.1283 11.8467 29.0333 11.15 28.78C10.1367 28.7167 9.25 28.7167 8.49 28.78C8.11 28.97 7.73 28.97 7.35 28.78C7.03333 28.5267 6.74833 28.5267 6.495 28.78C6.24167 28.3367 5.95667 28.3367 5.64 28.78C5.38667 29.16 5.19667 29.16 5.07 28.78C4.62667 28.4 4.12 28.1467 3.55 28.02C3.67667 27.64 3.61333 27.355 3.36 27.165C3.17 26.9117 3.23333 26.69 3.55 26.5C3.23333 26.2467 3.20167 25.9933 3.455 25.74C3.645 25.36 3.67667 25.0117 3.55 24.695C3.23333 24.505 3.17 24.2833 3.36 24.03C3.61333 23.65 3.61333 23.365 3.36 23.175C3.80333 22.3517 3.80333 21.3067 3.36 20.04C3.67667 19.9767 3.74 19.7233 3.55 19.28C3.48667 18.9 3.58167 18.6783 3.835 18.615C4.405 17.7917 5.10167 17.6017 5.925 18.045C6.74833 17.9817 7.54 18.0767 8.3 18.33C9.12333 18.52 9.88333 18.425 10.58 18.045C12.4167 18.425 14.3483 18.52 16.375 18.33C17.3883 18.52 18.2433 18.52 18.94 18.33C19.8267 18.3933 20.5233 18.3933 21.03 18.33C21.9167 18.71 22.36 18.3617 22.36 17.285C22.1067 17.095 22.1067 16.905 22.36 16.715C22.6133 16.4617 22.5183 16.24 22.075 16.05L22.36 15.86C22.2967 14.34 22.5183 13.0417 23.025 11.965C22.645 11.205 22.55 10.255 22.74 9.115C22.8667 8.48166 23.215 8.07 23.785 7.88C24.355 7.81666 24.8617 7.62666 25.305 7.31ZM115.745 52.72C116.125 53.1633 116.315 53.1633 116.315 52.72C116.315 52.4033 116.125 52.4033 115.745 52.72ZM109.095 26.405L109.38 26.69C109.57 26.4367 109.855 26.4367 110.235 26.69C110.488 26.88 110.71 26.785 110.9 26.405C111.66 26.8483 112.135 27.5767 112.325 28.59C112.642 28.7167 112.673 28.9383 112.42 29.255C112.167 29.5083 112.23 29.73 112.61 29.92L112.325 30.3C112.768 30.8067 112.768 31.3767 112.325 32.01C112.642 32.2 112.737 32.4217 112.61 32.675C112.293 32.865 112.198 33.1183 112.325 33.435C112.642 35.2083 112.072 36.285 110.615 36.665C110.235 36.5383 109.855 36.57 109.475 36.76C109.158 36.95 108.873 36.9183 108.62 36.665C108.43 36.9183 108.208 36.95 107.955 36.76C107.765 36.5067 107.575 36.5383 107.385 36.855H100.83C100.197 36.7917 99.5633 36.8867 98.93 37.14C98.36 37.33 97.79 37.235 97.22 36.855C96.7767 36.5383 96.5233 36.1267 96.46 35.62C96.46 35.05 96.365 34.5117 96.175 34.005C96.6183 32.9283 96.6183 31.8517 96.175 30.775C95.985 29.825 96.0167 28.9067 96.27 28.02C96.65 27.26 97.3783 26.9433 98.455 27.07C99.1517 27.1967 99.8167 27.1967 100.45 27.07C100.893 27.3233 101.305 27.2917 101.685 26.975C102.128 26.595 102.572 26.6267 103.015 27.07C104.028 27.1967 104.915 27.1967 105.675 27.07C106.245 26.7533 106.815 26.7533 107.385 27.07C107.702 26.6267 108.082 26.595 108.525 26.975C108.905 27.2283 109.095 27.0383 109.095 26.405ZM96.46 8.545L96.935 8.83C97.3783 8.51333 97.79 8.45 98.17 8.64C98.6133 8.76666 98.9933 8.735 99.31 8.545C99.69 8.925 100.102 8.98833 100.545 8.735C100.925 8.355 101.273 8.38666 101.59 8.83C102.033 8.51333 102.477 8.45 102.92 8.64C103.363 8.76666 103.807 8.735 104.25 8.545C104.44 8.925 104.63 8.98833 104.82 8.735C105.073 8.48166 105.295 8.51333 105.485 8.83C106.055 8.76666 106.625 8.67166 107.195 8.545C107.322 8.86167 107.543 8.86167 107.86 8.545C108.177 8.41833 108.43 8.51333 108.62 8.83C109.38 8.51333 110.14 8.51333 110.9 8.83C111.153 8.51333 111.375 8.48166 111.565 8.735C111.818 8.925 112.072 8.95666 112.325 8.83C113.085 9.02 113.433 9.36833 113.37 9.875C113.307 10.5083 113.275 11.1417 113.275 11.775C113.592 11.965 113.623 12.1867 113.37 12.44C113.117 12.6933 113.148 12.9467 113.465 13.2C113.338 13.58 113.338 14.0233 113.465 14.53C113.148 14.7833 113.117 15.0683 113.37 15.385C113.623 15.6383 113.592 15.8283 113.275 15.955C113.275 16.8417 112.958 17.57 112.325 18.14C110.995 17.8233 109.855 17.9817 108.905 18.615C108.905 18.1083 108.778 17.95 108.525 18.14C108.145 18.2667 107.86 18.2667 107.67 18.14C107.227 18.3933 106.752 18.3933 106.245 18.14C106.055 18.4567 105.833 18.4883 105.58 18.235C105.2 17.9817 104.947 18.0133 104.82 18.33H96.935C96.2383 18.33 95.6683 18.1717 95.225 17.855C95.3517 16.9683 95.3517 16.2717 95.225 15.765V11.11C95.0983 9.84333 95.51 8.98833 96.46 8.545ZM153.46 4.745C153.903 4.745 154.22 4.96666 154.41 5.40999C154.663 5.85333 155.012 6.10666 155.455 6.17C156.658 7.18333 157.703 8.07 158.59 8.83C158.653 9.27333 158.875 9.685 159.255 10.065C159.698 10.3183 159.952 10.6667 160.015 11.11C159.698 11.87 159.128 12.535 158.305 13.105C157.608 13.6117 156.943 14.2133 156.31 14.91C154.917 16.4933 153.302 18.045 151.465 19.565C152.225 19.8183 153.143 19.9133 154.22 19.85C154.853 19.5967 155.55 19.5017 156.31 19.565C157.133 19.6283 157.798 19.4067 158.305 18.9C158.875 19.09 159.445 19.09 160.015 18.9C161.345 18.71 162.232 19.185 162.675 20.325C162.422 20.5783 162.422 20.895 162.675 21.275C162.928 21.655 162.928 21.9083 162.675 22.035C162.928 23.1117 163.023 24.1883 162.96 25.265C163.34 27.1017 162.675 27.9883 160.965 27.925C160.458 28.1783 159.888 28.2733 159.255 28.21C158.622 28.0833 158.052 28.21 157.545 28.59C156.658 28.2733 155.867 28.2733 155.17 28.59C154.79 28.4633 154.41 28.495 154.03 28.685C153.713 28.875 153.428 28.8433 153.175 28.59C151.845 28.8433 150.483 28.9067 149.09 28.78C148.393 28.9067 147.728 28.9067 147.095 28.78C146.905 29.0967 146.683 29.16 146.43 28.97C146.24 28.7167 146.05 28.7483 145.86 29.065C145.417 28.6217 144.973 28.6217 144.53 29.065C144.15 29.445 144.118 29.8567 144.435 30.3C143.992 31.06 144.182 31.4083 145.005 31.345C145.512 31.535 145.987 31.5667 146.43 31.44C146.937 31.25 147.348 31.345 147.665 31.725C147.918 31.345 148.298 31.25 148.805 31.44C149.312 31.5667 149.723 31.44 150.04 31.06C150.547 31.44 151.085 31.535 151.655 31.345C152.288 31.0917 152.985 30.9967 153.745 31.06C154.632 30.9967 155.265 30.9967 155.645 31.06C156.278 30.87 157.007 30.775 157.83 30.775C158.02 31.0283 158.178 31.0917 158.305 30.965C158.495 30.6483 158.685 30.68 158.875 31.06C159.128 30.68 159.413 30.6483 159.73 30.965C160.11 31.2183 160.427 31.155 160.68 30.775C161.82 30.7117 162.675 31.2183 163.245 32.295C163.245 33.3083 163.34 34.2583 163.53 35.145C163.53 35.8417 163.53 36.6017 163.53 37.425C163.593 38.185 163.403 38.755 162.96 39.135C162.77 39.5783 162.517 39.8317 162.2 39.895C161.757 40.0217 161.345 40.1483 160.965 40.275C159.825 39.9583 158.685 39.9583 157.545 40.275C156.658 40.275 155.962 40.2117 155.455 40.085C154.822 40.3383 154.157 40.4017 153.46 40.275C152.383 40.2117 151.402 40.2117 150.515 40.275C150.262 39.9583 150.008 39.9267 149.755 40.18C149.502 40.37 149.185 40.4017 148.805 40.275C148.362 39.9583 147.823 39.9267 147.19 40.18C146.683 40.37 146.177 40.4017 145.67 40.275C144.783 40.1483 144.277 40.4017 144.15 41.035C144.087 41.605 144.087 42.2383 144.15 42.935C144.15 43.9483 144.562 44.2333 145.385 43.79C145.828 43.9167 146.177 43.8533 146.43 43.6C146.81 43.4733 147.127 43.5367 147.38 43.79C148.583 43.9167 149.723 43.8217 150.8 43.505C151.243 43.9483 151.718 44.0433 152.225 43.79C152.795 43.5367 153.302 43.5367 153.745 43.79C154.632 43.41 155.487 43.41 156.31 43.79C156.943 43.6633 157.545 43.5683 158.115 43.505C158.875 43.695 159.73 43.6 160.68 43.22C160.997 42.9667 161.345 42.9667 161.725 43.22C162.168 43.41 162.58 43.315 162.96 42.935C163.467 42.935 163.878 42.6817 164.195 42.175C164.322 41.6683 164.702 41.4467 165.335 41.51C166.475 41.32 167.235 41.6367 167.615 42.46C167.488 43.79 167.457 45.1517 167.52 46.545C167.647 47.875 167.488 49.11 167.045 50.25C167.172 51.1367 166.792 51.8017 165.905 52.245C165.335 52.4983 164.828 52.6567 164.385 52.72H160.015C159.318 52.91 158.685 52.91 158.115 52.72C157.925 53.1 157.703 53.1633 157.45 52.91C157.26 52.6567 157.07 52.7517 156.88 53.195C156.69 52.7517 156.468 52.6567 156.215 52.91C156.025 53.1633 155.835 53.1 155.645 52.72C154.505 53.1 153.207 53.2583 151.75 53.195C151.053 53.2583 150.325 53.2583 149.565 53.195C149.312 53.3217 148.995 53.3217 148.615 53.195C148.298 53.005 147.982 53.0683 147.665 53.385C146.905 53.0683 146.018 53.005 145.005 53.195C144.562 53.195 144.435 53.3217 144.625 53.575C144.878 53.8283 144.815 54.05 144.435 54.24V62.41C144.245 63.93 144.34 65.3233 144.72 66.59C144.467 66.78 144.467 67.065 144.72 67.445C144.91 67.6983 144.815 67.92 144.435 68.11C144.815 68.3633 144.91 68.68 144.72 69.06C144.467 69.3133 144.372 69.5667 144.435 69.82C144.688 71.0233 144.372 71.815 143.485 72.195C143.358 72.7017 143.105 72.8917 142.725 72.765C142.345 72.4483 141.965 72.3533 141.585 72.48C140.762 72.7967 140.002 72.955 139.305 72.955C138.608 72.7017 137.848 72.67 137.025 72.86C136.138 72.9233 135.442 72.7017 134.935 72.195C134.492 72.005 134.302 71.7833 134.365 71.53C134.492 71.15 134.46 70.8967 134.27 70.77C134.333 69.8833 134.238 69.2183 133.985 68.775C134.555 67.635 134.555 66.5583 133.985 65.545C134.365 64.595 134.46 63.645 134.27 62.695C134.46 61.1117 134.365 59.655 133.985 58.325C134.428 57.5017 134.428 56.71 133.985 55.95C134.428 55.2533 134.428 54.4933 133.985 53.67C133.542 53.48 132.877 53.385 131.99 53.385C130.85 53.3217 129.805 53.3217 128.855 53.385C127.905 53.385 127.113 53.48 126.48 53.67H121.065C120.812 54.05 120.495 54.145 120.115 53.955C119.735 53.765 119.482 53.765 119.355 53.955C118.088 54.0183 117.107 53.6067 116.41 52.72C115.46 53.6067 114.637 54.5567 113.94 55.57C113.117 56.52 112.167 57.2483 111.09 57.755C109.76 59.275 108.145 60.9217 106.245 62.695C104.915 63.835 103.775 64.975 102.825 66.115C101.305 65.8617 100.133 64.975 99.31 63.455C98.17 62.5683 97.125 61.5867 96.175 60.51C95.5417 60.13 95.0983 59.655 94.845 59.085C94.5917 58.4517 94.8133 57.8817 95.51 57.375C96.5867 56.8683 97.4733 56.2983 98.17 55.665C99.0567 55.4117 99.6267 54.9367 99.88 54.24C100.957 53.9233 101.843 53.3533 102.54 52.53C103.237 51.6433 104.06 50.9783 105.01 50.535C106.72 49.0783 108.082 47.7167 109.095 46.45C109.475 46.5133 109.76 46.45 109.95 46.26C110.203 46.0067 110.425 46.07 110.615 46.45C111.502 46.9567 112.072 47.59 112.325 48.35C113.465 49.2367 114.447 50.2183 115.27 51.295C115.397 51.8017 115.587 51.9917 115.84 51.865C116.22 51.675 116.188 51.39 115.745 51.01C116.125 50.25 116.188 49.49 115.935 48.73C115.745 47.9067 115.682 47.0517 115.745 46.165C115.555 45.3417 115.872 44.6767 116.695 44.17C117.138 44.2333 117.487 44.17 117.74 43.98C118.12 43.7267 118.437 43.79 118.69 44.17C120.147 43.98 121.603 43.8533 123.06 43.79C124.453 44.2967 125.815 44.2967 127.145 43.79C127.398 44.1067 127.683 44.17 128 43.98C128.38 43.7267 128.76 43.6633 129.14 43.79C129.457 44.2333 129.805 44.36 130.185 44.17C130.438 43.98 130.755 43.8533 131.135 43.79C131.832 43.9167 132.528 43.9167 133.225 43.79C133.288 44.0433 133.51 44.075 133.89 43.885C134.333 43.695 134.365 43.4733 133.985 43.22C134.428 42.46 134.428 41.5733 133.985 40.56C133.352 40.3067 132.782 40.1483 132.275 40.085C131.135 40.4017 129.9 40.465 128.57 40.275C126.987 40.275 125.53 40.37 124.2 40.56C123.567 40.3067 122.997 40.3067 122.49 40.56C122.237 40.2433 121.857 40.2117 121.35 40.465C120.907 40.7183 120.59 40.655 120.4 40.275C119.703 39.895 119.418 39.23 119.545 38.28C119.672 37.2667 119.608 36.4117 119.355 35.715C119.418 35.0817 119.355 34.5117 119.165 34.005C118.975 33.435 119.102 32.9283 119.545 32.485C119.292 32.1683 119.387 31.8833 119.83 31.63C120.4 31.3133 120.907 31.2183 121.35 31.345C121.793 31.2183 122.205 31.3133 122.585 31.63C123.028 31.7567 123.472 31.6617 123.915 31.345C124.485 31.6617 125.15 31.7883 125.91 31.725C127.493 31.7883 128.95 31.6617 130.28 31.345C130.85 31.535 131.42 31.535 131.99 31.345C132.433 31.345 132.94 31.3767 133.51 31.44C134.08 31.44 134.238 31.2183 133.985 30.775C134.365 30.585 134.397 30.3633 134.08 30.11C133.827 29.7933 133.89 29.54 134.27 29.35C134.27 28.8433 134.143 28.7167 133.89 28.97C133.637 29.16 133.415 29.0967 133.225 28.78C132.655 29.35 132.085 29.35 131.515 28.78C131.135 29.35 130.692 29.445 130.185 29.065C129.742 28.6217 129.298 28.7167 128.855 29.35C128.412 29.2867 128 29.1917 127.62 29.065C127.113 29.1917 126.607 29.2867 126.1 29.35C125.467 29.4133 125.023 29.2233 124.77 28.78C123.947 29.0967 123.092 29.1917 122.205 29.065C121.762 29.0017 121.35 29.065 120.97 29.255C120.653 29.3817 120.368 29.3183 120.115 29.065C119.925 29.3183 119.703 29.3183 119.45 29.065C119.07 28.7483 118.88 28.4317 118.88 28.115C118.373 27.6083 118.215 26.785 118.405 25.645C118.722 25.455 118.753 25.2333 118.5 24.98C118.247 24.6 118.31 24.3467 118.69 24.22C118.437 23.5233 118.342 22.7317 118.405 21.845C118.405 21.085 118.563 20.515 118.88 20.135H122.49C122.68 20.4517 122.933 20.515 123.25 20.325C123.567 20.0717 123.883 20.0083 124.2 20.135C124.643 20.3883 125.182 20.42 125.815 20.23C126.448 19.9767 126.987 20.0083 127.43 20.325C132.94 20.515 138.45 20.4517 143.96 20.135C144.72 20.515 145.448 20.515 146.145 20.135C147.032 20.0083 147.158 19.6917 146.525 19.185C145.955 18.615 145.448 18.1717 145.005 17.855C144.815 17.285 144.435 16.8417 143.865 16.525C143.358 16.145 143.168 15.7967 143.295 15.48L143.01 15.195C143.77 14.1183 144.657 13.1367 145.67 12.25C146.557 11.3 147.507 10.445 148.52 9.685C150.23 7.91166 151.877 6.265 153.46 4.745ZM125.91 3.60499C126.607 4.17499 127.398 4.87166 128.285 5.695C128.982 6.32833 129.267 6.89833 129.14 7.405C130.153 8.98833 131.198 10.54 132.275 12.06C132.528 12.63 132.877 13.1367 133.32 13.58C133.763 13.96 133.637 14.4033 132.94 14.91C131.863 16.43 130.502 17.5067 128.855 18.14C128.348 18.71 127.778 18.9633 127.145 18.9C126.765 19.28 126.48 19.375 126.29 19.185C126.163 18.9317 125.942 18.7417 125.625 18.615C125.498 18.1083 125.15 17.57 124.58 17C124.073 16.62 123.788 16.1133 123.725 15.48C122.585 14.4033 121.603 13.2633 120.78 12.06C120.083 10.6033 119.292 9.43167 118.405 8.545C120.685 6.455 123.187 4.80833 125.91 3.60499ZM211.6 65.64L211.41 66.02C211.03 65.7033 210.808 65.7033 210.745 66.02C210.745 66.4633 210.745 66.8117 210.745 67.065C210.808 68.0783 211.03 68.965 211.41 69.725C214.133 69.725 216.825 69.82 219.485 70.01C219.865 69.7567 220.34 69.7567 220.91 70.01C221.1 69.6933 221.258 69.6617 221.385 69.915C221.575 70.105 221.765 70.0417 221.955 69.725C223.158 70.105 224.425 70.2 225.755 70.01C226.388 70.2 227.053 70.2 227.75 70.01C227.94 69.7567 228.13 69.7567 228.32 70.01C228.573 70.2 228.795 70.105 228.985 69.725C229.872 70.295 230.758 70.295 231.645 69.725C231.772 70.105 231.993 70.2 232.31 70.01C232.437 69.7567 232.69 69.6617 233.07 69.725C233.26 70.0417 233.482 70.0417 233.735 69.725C234.052 69.5983 234.305 69.6933 234.495 70.01C235.318 69.6933 236.078 69.6933 236.775 70.01C237.408 69.7567 238.073 69.6617 238.77 69.725C239.53 69.915 240.132 69.63 240.575 68.87C240.258 68.11 240.132 67.255 240.195 66.305C240.575 66.2417 240.607 66.02 240.29 65.64C239.973 65.3867 239.752 65.3867 239.625 65.64H228.7C227.117 65.5767 225.66 65.7033 224.33 66.02C223.253 65.7033 222.113 65.5767 220.91 65.64C219.96 65.7667 219.168 65.6717 218.535 65.355C217.838 65.7983 217.078 65.7983 216.255 65.355C216.065 65.735 215.843 65.83 215.59 65.64C215.4 65.3867 215.242 65.3867 215.115 65.64C214.925 65.3233 214.703 65.2917 214.45 65.545C214.26 65.735 213.975 65.7667 213.595 65.64C212.708 65.64 212.043 65.64 211.6 65.64ZM211.6 55.855C211.157 56.5517 211.157 57.2167 211.6 57.85C211.347 58.23 211.252 58.6733 211.315 59.18C211.442 59.6867 211.822 59.94 212.455 59.94C212.962 60.0667 213.437 60.035 213.88 59.845C214.323 59.5917 214.735 59.6233 215.115 59.94C215.558 59.6233 215.97 59.56 216.35 59.75C216.793 59.8767 217.237 59.94 217.68 59.94C218.123 59.8767 218.567 59.94 219.01 60.13C219.453 60.32 219.865 60.2567 220.245 59.94C220.878 60.0667 221.67 60.0667 222.62 59.94C222.81 60.32 223.032 60.415 223.285 60.225C223.602 59.9717 223.855 59.9717 224.045 60.225C225.565 60.415 226.895 60.32 228.035 59.94C228.415 60.32 228.763 60.3833 229.08 60.13C229.523 59.94 229.872 60.0667 230.125 60.51C231.835 60.13 233.64 60.035 235.54 60.225C236.68 60.1617 237.662 60.1617 238.485 60.225C238.675 59.9083 238.897 59.8767 239.15 60.13C239.467 60.3833 239.72 60.32 239.91 59.94C240.353 60.2567 240.575 60.1617 240.575 59.655C240.575 59.085 240.575 58.61 240.575 58.23C240.765 57.5967 240.638 56.995 240.195 56.425C239.752 55.855 239.277 55.76 238.77 56.14C237.63 56.14 236.553 56.045 235.54 55.855C235.413 56.235 235.192 56.33 234.875 56.14C234.558 55.8867 234.305 55.8867 234.115 56.14C233.735 55.76 233.292 55.665 232.785 55.855C232.342 56.045 231.962 56.045 231.645 55.855C231.202 55.7917 230.79 55.855 230.41 56.045C230.03 56.1717 229.713 56.1083 229.46 55.855C228.447 56.045 227.623 56.045 226.99 55.855H213.595C213.278 56.045 212.93 56.045 212.55 55.855C212.233 55.6017 211.917 55.6017 211.6 55.855ZM212.74 45.405C212.297 45.405 211.917 45.5 211.6 45.69C211.727 46.3867 211.663 46.9883 211.41 47.495C211.22 48.1283 211.283 48.73 211.6 49.3C212.043 49.1733 212.423 49.205 212.74 49.395C213.057 49.585 213.342 49.5533 213.595 49.3C214.165 49.6167 214.735 49.7117 215.305 49.585C215.938 49.395 216.508 49.4583 217.015 49.775C217.458 49.7117 217.87 49.6167 218.25 49.49C218.503 49.87 218.757 49.965 219.01 49.775C219.327 49.5217 219.643 49.4267 219.96 49.49C220.213 49.8067 220.498 49.87 220.815 49.68C221.195 49.49 221.575 49.4267 221.955 49.49C222.335 49.8067 222.652 49.87 222.905 49.68C223.222 49.49 223.507 49.5217 223.76 49.775H230.98C232.563 49.585 234.02 49.68 235.35 50.06C236.11 49.68 236.933 49.585 237.82 49.775C238.77 49.965 239.562 49.8067 240.195 49.3C240.702 48.0967 240.702 46.8933 240.195 45.69H235.54C234.147 45.88 232.69 45.785 231.17 45.405C230.663 45.595 230.093 45.595 229.46 45.405C229.333 45.785 229.112 45.88 228.795 45.69C228.478 45.4367 228.225 45.4367 228.035 45.69C227.212 45.69 226.388 45.595 225.565 45.405C225.122 45.1517 224.583 45.1517 223.95 45.405C223.317 45.595 222.778 45.5 222.335 45.12C221.575 45.31 220.878 45.5 220.245 45.69C219.422 45.31 218.535 45.215 217.585 45.405C216.508 45.595 215.59 45.5 214.83 45.12C214.45 45.31 214.07 45.3417 213.69 45.215C213.373 45.025 213.057 45.0883 212.74 45.405ZM245.23 0.374997C246.117 0.248332 246.877 0.311664 247.51 0.564994C248.207 0.818328 248.492 1.38833 248.365 2.27499C248.808 3.035 248.808 3.82666 248.365 4.65C248.555 5.41 248.555 6.13833 248.365 6.835C248.112 7.405 247.985 8.13333 247.985 9.02C247.288 10.73 245.958 11.49 243.995 11.3C243.298 11.49 242.602 11.49 241.905 11.3C240.955 11.3 240.195 11.395 239.625 11.585C239.498 11.205 239.245 11.1733 238.865 11.49C238.548 11.7433 238.232 11.68 237.915 11.3C237.408 11.5533 236.933 11.5533 236.49 11.3C236.173 11.68 235.793 11.775 235.35 11.585C234.907 11.3317 234.495 11.3317 234.115 11.585L233.83 11.3C233.07 11.5533 232.12 11.6483 230.98 11.585C230.79 11.9017 230.568 11.9333 230.315 11.68C229.935 11.4267 229.65 11.49 229.46 11.87C228.7 11.5533 227.877 11.4583 226.99 11.585C226.8 11.9017 226.578 11.9333 226.325 11.68C225.945 11.4267 225.692 11.49 225.565 11.87C224.678 11.3 223.95 11.5217 223.38 12.535C222.873 13.295 223.095 13.865 224.045 14.245H232.69C233.26 14.3083 233.767 14.245 234.21 14.055C234.78 13.8017 235.223 13.865 235.54 14.245C236.807 13.865 238.105 13.77 239.435 13.96C239.878 14.0233 240.227 13.9917 240.48 13.865C240.797 13.5483 241.113 13.58 241.43 13.96C241.747 13.58 242.222 13.485 242.855 13.675C243.488 13.8017 243.963 13.675 244.28 13.295C245.61 13.5483 246.972 13.4533 248.365 13.01C249.188 12.9467 249.853 12.9467 250.36 13.01C252.07 12.9467 252.83 13.7383 252.64 15.385C253.083 15.575 253.178 15.765 252.925 15.955C252.672 16.145 252.703 16.3033 253.02 16.43C252.577 17.4433 252.577 18.33 253.02 19.09C253.083 21.2433 252.102 22.225 250.075 22.035C249.948 22.2883 249.727 22.32 249.41 22.13C249.093 21.8767 248.84 21.94 248.65 22.32C248.207 22.1933 247.827 22.0983 247.51 22.035C246.053 22.2883 244.502 22.3833 242.855 22.32C242.475 22.6367 242.032 22.7 241.525 22.51C241.018 22.2567 240.575 22.2567 240.195 22.51C239.942 22.2567 239.593 22.2883 239.15 22.605C238.77 22.8583 238.453 22.7633 238.2 22.32C237.123 22.6367 235.983 22.7 234.78 22.51C234.273 22.1933 233.735 22.1617 233.165 22.415C232.658 22.605 232.152 22.6367 231.645 22.51C231.265 22.7 230.885 22.7 230.505 22.51C230.188 22.4467 229.84 22.605 229.46 22.985C228.13 22.605 226.737 22.4467 225.28 22.51C224.647 22.4467 224.108 22.5417 223.665 22.795C223.285 23.0483 223.317 23.46 223.76 24.03C223.76 24.5367 223.982 24.7583 224.425 24.695C224.868 24.505 225.248 24.5683 225.565 24.885C226.768 24.8217 228.193 24.8217 229.84 24.885C230.853 24.8217 231.708 24.8217 232.405 24.885C233.038 24.8217 233.735 24.8217 234.495 24.885C235.065 24.6317 235.603 24.6 236.11 24.79C236.743 24.98 237.345 25.0117 237.915 24.885C238.738 24.8217 239.403 24.7583 239.91 24.695C240.1 24.9483 240.322 24.9483 240.575 24.695C240.955 24.505 241.24 24.5683 241.43 24.885C242.697 24.6317 244.058 24.5683 245.515 24.695C245.705 24.2517 245.863 24.1567 245.99 24.41C246.18 24.6633 246.37 24.6 246.56 24.22C247.32 24.6 248.017 24.5367 248.65 24.03C249.347 24.3467 250.107 24.41 250.93 24.22C251.817 23.9667 252.703 23.7133 253.59 23.46C254.16 23.3967 254.413 23.1433 254.35 22.7C254.35 22.13 254.572 21.7183 255.015 21.465C256.092 20.9583 257.01 21.0533 257.77 21.75C258.593 22.4467 258.815 23.27 258.435 24.22C257.992 25.0433 257.992 25.8667 258.435 26.69C258.118 27.0067 258.055 27.3867 258.245 27.83C258.498 28.21 258.562 28.6217 258.435 29.065C257.992 29.065 257.833 29.2233 257.96 29.54C257.96 29.9833 257.96 30.395 257.96 30.775C258.277 31.0917 258.245 31.4717 257.865 31.915C257.548 32.295 257.168 32.485 256.725 32.485C256.028 32.7383 255.268 32.9917 254.445 33.245C253.938 33.245 253.558 33.15 253.305 32.96C253.115 33.34 252.893 33.4033 252.64 33.15C252.26 32.8967 252.007 32.9283 251.88 33.245C251.31 32.9917 250.803 32.9917 250.36 33.245C249.727 33.1817 249.062 33.1817 248.365 33.245C248.112 32.9283 247.858 32.8967 247.605 33.15C247.415 33.34 247.193 33.3717 246.94 33.245C246.56 32.9283 246.148 32.8967 245.705 33.15C245.325 33.4033 244.945 33.34 244.565 32.96C244.122 33.34 243.583 33.435 242.95 33.245C242.38 33.1817 241.873 33.3083 241.43 33.625C240.543 33.1183 239.657 33.1183 238.77 33.625C237.947 33.4983 237.092 33.4983 236.205 33.625C236.078 33.1817 235.857 33.15 235.54 33.53C235.223 33.7833 234.97 33.6883 234.78 33.245C234.59 33.6883 234.368 33.7833 234.115 33.53C233.925 33.2767 233.735 33.3083 233.545 33.625H229.27C228.447 33.625 227.782 33.625 227.275 33.625C226.388 33.7517 225.407 33.7517 224.33 33.625C223.633 33.7517 222.937 33.72 222.24 33.53C221.607 33.34 221.068 33.4667 220.625 33.91C219.548 33.5933 218.662 33.8467 217.965 34.67C217.902 35.43 217.553 35.9683 216.92 36.285C216.413 36.665 215.97 37.1083 215.59 37.615C215.083 37.995 215.052 38.3117 215.495 38.565C215.812 38.8183 216.16 38.8183 216.54 38.565C216.793 38.8817 217.078 38.945 217.395 38.755C217.775 38.5017 218.06 38.5333 218.25 38.85H226.61C227.117 38.9767 227.718 38.9767 228.415 38.85C229.112 38.66 229.777 38.7233 230.41 39.04C230.6 38.7867 230.79 38.7867 230.98 39.04C231.233 39.23 231.455 39.1667 231.645 38.85C232.405 38.9767 233.133 38.9767 233.83 38.85C234.527 39.2933 235.255 39.2933 236.015 38.85C236.142 39.1667 236.332 39.23 236.585 39.04C236.902 38.7867 237.123 38.7867 237.25 39.04C238.01 39.04 238.517 38.9767 238.77 38.85C239.023 39.1667 239.308 39.23 239.625 39.04C240.068 38.9133 240.385 38.9133 240.575 39.04C241.905 38.7233 243.235 38.7233 244.565 39.04C245.262 38.9767 245.927 38.945 246.56 38.945C247.257 38.8817 247.858 39.23 248.365 39.99C248.555 40.6867 248.745 41.3517 248.935 41.985C248.745 43.3783 248.65 44.835 248.65 46.355C248.65 48.1917 248.555 49.9017 248.365 51.485C248.745 51.7383 248.808 52.0233 248.555 52.34C248.365 52.5933 248.302 52.8783 248.365 53.195C248.682 53.5117 248.682 53.86 248.365 54.24C248.112 54.5567 248.207 54.7783 248.65 54.905C248.207 55.9183 248.207 56.805 248.65 57.565C248.333 57.755 248.302 58.04 248.555 58.42C248.808 58.6733 248.745 58.895 248.365 59.085C248.682 59.3383 248.682 59.6233 248.365 59.94C248.112 60.2567 248.207 60.5417 248.65 60.795C248.333 61.935 248.238 63.075 248.365 64.215C248.682 64.7217 248.682 65.1967 248.365 65.64C248.682 66.3367 248.682 67.0333 248.365 67.73C248.365 68.8067 248.46 69.8833 248.65 70.96C248.397 71.8467 248.397 72.7967 248.65 73.81C248.65 74.8867 248.27 75.7417 247.51 76.375C246.94 76.3117 246.402 76.375 245.895 76.565C245.452 76.8183 245.008 76.755 244.565 76.375C243.868 76.755 242.982 76.8817 241.905 76.755C241.652 76.5017 241.303 76.47 240.86 76.66C240.417 76.9133 240.005 76.8183 239.625 76.375C239.055 76.755 238.263 76.8817 237.25 76.755C236.3 76.6917 235.382 76.66 234.495 76.66C233.608 76.7233 232.912 76.755 232.405 76.755C230.442 76.565 228.51 76.66 226.61 77.04C226.167 77.1033 225.723 77.0717 225.28 76.945C224.837 76.6283 224.425 76.66 224.045 77.04C222.398 76.5333 220.783 76.5333 219.2 77.04C218.947 76.66 218.662 76.6283 218.345 76.945C218.028 77.0717 217.68 77.1033 217.3 77.04C216.983 77.1033 216.635 77.0717 216.255 76.945C215.938 76.6283 215.622 76.66 215.305 77.04C214.102 77.1033 212.962 77.0083 211.885 76.755C211.125 76.8817 210.333 76.9767 209.51 77.04C208.877 76.9767 208.212 76.9767 207.515 77.04C206.502 77.1033 205.362 77.0083 204.095 76.755C203.842 77.135 203.493 77.1983 203.05 76.945C202.607 76.565 202.385 76.185 202.385 75.805C201.942 75.5517 201.91 75.2667 202.29 74.95C202.543 74.5067 202.448 74.1267 202.005 73.81L202.385 68.585C202.195 67.1917 202.29 65.735 202.67 64.215C202.29 63.3917 202.195 62.4733 202.385 61.46C202.322 60.5733 202.322 59.845 202.385 59.275C202.575 57.6283 202.448 56.0133 202.005 54.43C202.322 54.24 202.353 53.9867 202.1 53.67C201.847 53.29 201.942 52.9733 202.385 52.72C202.005 52.4667 201.973 52.1817 202.29 51.865C202.417 51.6117 202.448 51.3267 202.385 51.01C202.448 50.63 202.417 50.2817 202.29 49.965C201.973 49.585 202.005 49.205 202.385 48.825C202.132 48.6983 202.037 48.4767 202.1 48.16C202.29 47.9067 202.163 47.685 201.72 47.495L198.775 49.49C198.332 49.4267 198.015 49.585 197.825 49.965C197.698 50.2817 197.35 50.4083 196.78 50.345C196.4 50.8517 195.83 51.2317 195.07 51.485C193.867 51.9283 192.727 52.4983 191.65 53.195C189.623 54.0817 187.692 55.1583 185.855 56.425C185.222 56.2983 184.683 56.3933 184.24 56.71C183.797 56.9633 183.353 56.995 182.91 56.805C182.847 56.425 182.593 56.1083 182.15 55.855C181.77 55.6017 181.77 55.285 182.15 54.905C181.897 54.5883 181.58 54.1767 181.2 53.67C181.327 53.1 181.232 52.6883 180.915 52.435C180.598 52.055 180.535 51.6433 180.725 51.2C180.155 50.9467 179.838 50.5983 179.775 50.155C179.775 49.6483 179.585 49.205 179.205 48.825C179.585 48.6983 179.68 48.54 179.49 48.35C179.3 48.16 179.205 47.97 179.205 47.78C178.888 47.3367 178.952 46.8933 179.395 46.45C179.902 46.0067 180.408 45.88 180.915 46.07C182.118 45.8167 183.195 45.3417 184.145 44.645C185.222 44.645 186.172 44.4233 186.995 43.98C188.705 43.3467 190.447 42.6817 192.22 41.985C192.537 42.0483 192.853 42.0167 193.17 41.89C193.487 41.5733 193.74 41.605 193.93 41.985C194.69 41.2883 195.577 40.7183 196.59 40.275C197.16 40.0217 197.73 39.8 198.3 39.61C198.49 39.61 198.87 39.3567 199.44 38.85C200.073 38.7233 200.58 38.4383 200.96 37.995C201.403 37.5517 201.973 37.2667 202.67 37.14C202.733 36.6967 202.955 36.4433 203.335 36.38C203.778 36.2533 204.032 36 204.095 35.62C204.792 35.5567 205.362 35.1767 205.805 34.48C206.312 34.1633 206.438 33.9417 206.185 33.815C205.868 33.5617 205.583 33.5933 205.33 33.91C204 33.5933 202.607 33.4983 201.15 33.625C201.023 34.005 200.802 34.0683 200.485 33.815C200.168 33.5617 199.915 33.5933 199.725 33.91C198.775 33.5933 197.73 33.4983 196.59 33.625C195.007 33.4983 193.55 33.5933 192.22 33.91C190.7 33.5933 189.148 33.5933 187.565 33.91C186.678 33.72 185.792 33.72 184.905 33.91C184.715 33.5933 184.525 33.5617 184.335 33.815C184.208 34.0683 184.05 34.005 183.86 33.625L183.48 33.91C182.593 33.6567 182.023 32.96 181.77 31.82C181.39 31.44 181.295 31.0917 181.485 30.775C181.548 30.3317 181.548 29.825 181.485 29.255C181.548 28.495 181.548 27.64 181.485 26.69C181.485 25.93 181.707 25.3283 182.15 24.885C182.783 24.5683 183.543 24.505 184.43 24.695C185.317 24.7583 186.108 24.6 186.805 24.22C187.058 24.5367 187.343 24.6 187.66 24.41C188.04 24.22 188.42 24.315 188.8 24.695C189.117 24.3783 189.497 24.3783 189.94 24.695C190.637 24.5683 191.302 24.5683 191.935 24.695C192.442 24.7583 192.917 24.695 193.36 24.505C193.93 24.2517 194.437 24.315 194.88 24.695C195.323 24.315 195.798 24.315 196.305 24.695C197.255 24.5683 198.078 24.5683 198.775 24.695C199.662 24.5683 200.643 24.5683 201.72 24.695C201.973 24.9483 202.258 24.9483 202.575 24.695C202.955 24.3783 203.24 24.4417 203.43 24.885C204.063 24.5683 204.697 24.5683 205.33 24.885C205.647 24.5683 206.027 24.5367 206.47 24.79C206.977 25.0433 207.42 25.0117 207.8 24.695C207.99 25.0117 208.18 25.075 208.37 24.885C208.623 24.6317 208.845 24.6317 209.035 24.885C210.302 25.0117 211.442 24.7267 212.455 24.03C212.518 23.46 212.328 22.9533 211.885 22.51C210.935 22.6367 210.048 22.5733 209.225 22.32C208.655 22.1933 207.99 22.1933 207.23 22.32C205.647 22.13 204.222 22.1933 202.955 22.51C202.385 22.1933 201.783 22.1933 201.15 22.51C201.023 22.1933 200.802 22.1617 200.485 22.415C200.358 22.605 200.2 22.5733 200.01 22.32H194.88C194.057 22.1933 193.075 22.1933 191.935 22.32C191.682 22.5733 191.333 22.5417 190.89 22.225C190.51 21.845 190.193 21.8767 189.94 22.32C188.61 22.3833 187.628 22.0983 186.995 21.465C186.425 21.2117 186.267 20.8 186.52 20.23C186.773 19.5967 186.742 19.0583 186.425 18.615C186.488 17.6017 186.457 16.62 186.33 15.67C186.267 14.72 186.678 13.9283 187.565 13.295C188.642 13.675 189.782 13.8017 190.985 13.675C191.555 13.4217 192.125 13.485 192.695 13.865C193.328 14.1183 193.962 14.055 194.595 13.675C195.292 13.9283 196.02 14.0233 196.78 13.96C197.54 14.0233 198.205 14.0233 198.775 13.96C199.852 13.96 200.738 13.96 201.435 13.96C201.815 14.2133 202.132 14.2767 202.385 14.15C202.638 13.96 202.892 13.9917 203.145 14.245C203.335 13.865 203.62 13.8017 204 14.055C204.253 14.3083 204.475 14.2767 204.665 13.96C205.932 14.2767 207.293 14.3717 208.75 14.245C209.51 14.1183 210.175 14.1183 210.745 14.245C211.315 14.245 211.79 14.15 212.17 13.96C212.613 13.8967 212.835 13.5483 212.835 12.915C212.835 12.2817 212.613 11.9333 212.17 11.87C210.587 11.7433 209.13 11.87 207.8 12.25C206.977 11.68 206.153 11.68 205.33 12.25C204.887 11.87 204.38 11.775 203.81 11.965C203.24 12.0283 202.765 11.9017 202.385 11.585C201.942 11.6483 201.53 11.7433 201.15 11.87C201.15 12.3133 200.992 12.3767 200.675 12.06C200.422 11.7433 200.2 11.8067 200.01 12.25C199.187 11.87 198.205 11.7433 197.065 11.87C196.495 12.3133 195.83 12.3133 195.07 11.87C194.817 12.1867 194.563 12.25 194.31 12.06C194.057 11.8067 193.74 11.7433 193.36 11.87C192.473 12.1233 191.745 11.965 191.175 11.395C190.415 10.825 190.257 10.1283 190.7 9.30499C190.637 8.86166 190.637 8.48166 190.7 8.165C190.383 7.975 190.352 7.75333 190.605 7.5C190.858 7.12 190.827 6.835 190.51 6.645C190.827 6.39166 190.858 6.04333 190.605 5.6C190.415 5.28333 190.447 4.96666 190.7 4.65C191.587 3.51 192.758 3.13 194.215 3.51C194.912 3.7 195.608 3.7 196.305 3.51C197.065 3.57333 197.73 3.57333 198.3 3.51C199.693 3.44666 201.055 3.54166 202.385 3.795C203.082 3.54166 203.747 3.54166 204.38 3.795C205.013 3.54166 205.583 3.54166 206.09 3.795C206.343 3.415 206.597 3.35166 206.85 3.60499C207.103 3.795 207.42 3.85833 207.8 3.795C207.99 3.415 208.243 3.38333 208.56 3.7C208.877 3.95333 209.098 3.88999 209.225 3.51C209.542 3.7 209.89 3.7 210.27 3.51C210.713 3.31999 211.093 3.415 211.41 3.795C211.98 3.415 212.613 3.415 213.31 3.795C213.753 3.605 214.228 3.605 214.735 3.795C215.305 3.985 215.812 3.88999 216.255 3.51C216.445 3.88999 216.635 3.985 216.825 3.795C217.078 3.54166 217.363 3.44666 217.68 3.51C218.123 3.76333 218.598 3.82666 219.105 3.7C219.675 3.51 220.277 3.44666 220.91 3.51C221.1 3.88999 221.322 3.985 221.575 3.795C221.892 3.54166 222.145 3.54166 222.335 3.795H232.405C233.988 3.985 235.445 3.88999 236.775 3.51C238.168 3.51 239.562 3.51 240.955 3.51C242.412 3.44666 243.615 2.87666 244.565 1.8C244.185 1.23 244.407 0.754995 245.23 0.374997ZM340.04 9.495H340.705C341.402 9.495 341.972 9.71666 342.415 10.16C342.225 11.49 342.288 12.725 342.605 13.865C342.288 14.9417 342.288 15.9867 342.605 17C342.605 18.2667 342.447 19.3433 342.13 20.23C340.99 21.4333 339.692 21.7183 338.235 21.085C337.285 21.4017 336.145 21.4967 334.815 21.37C334.245 21.3067 333.58 21.3067 332.82 21.37C332.503 21.56 332.155 21.56 331.775 21.37C331.458 21.18 331.11 21.275 330.73 21.655C330.477 21.2117 330.16 21.18 329.78 21.56C329.463 21.8133 329.21 21.845 329.02 21.655C328.513 21.845 327.848 21.845 327.025 21.655C326.392 21.845 325.727 21.845 325.03 21.655C324.143 21.5917 323.193 21.5917 322.18 21.655C321.863 21.275 321.578 21.2433 321.325 21.56C321.072 21.6867 320.787 21.7183 320.47 21.655C320.153 21.275 319.773 21.18 319.33 21.37C318.887 21.56 318.538 21.56 318.285 21.37C317.525 21.37 316.86 21.465 316.29 21.655C316.29 21.1483 316.068 21.0217 315.625 21.275C315.308 21.465 314.96 21.4967 314.58 21.37C314.01 22.7 313.852 24.1567 314.105 25.74C313.852 27.1333 314.422 27.7033 315.815 27.45C317.335 27.1967 318.887 27.1967 320.47 27.45C320.597 27.1333 320.818 27.1017 321.135 27.355C321.515 27.6083 321.863 27.545 322.18 27.165C322.433 27.545 322.718 27.6083 323.035 27.355C323.352 27.1017 323.637 27.1333 323.89 27.45C324.143 27.1333 324.428 27.1017 324.745 27.355C325.125 27.6083 325.41 27.545 325.6 27.165C326.677 27.545 327.817 27.64 329.02 27.45C329.4 27.1333 329.812 27.1333 330.255 27.45C330.698 27.7033 331.078 27.6083 331.395 27.165C331.585 27.545 331.838 27.64 332.155 27.45C332.472 27.1967 332.693 27.1967 332.82 27.45C333.263 27.1967 333.77 27.1967 334.34 27.45C335.1 27.3867 335.923 27.3867 336.81 27.45C337.887 27.1333 338.773 27.45 339.47 28.4C339.47 29.73 339.28 31.06 338.9 32.39C339.027 33.4033 338.963 34.4483 338.71 35.525C338.773 35.905 338.678 36.2533 338.425 36.57C338.045 36.8233 337.982 37.045 338.235 37.235C338.172 38.2483 337.918 39.135 337.475 39.895L337.19 43.695C336.747 44.0117 336.525 44.4233 336.525 44.93C336.652 45.4367 336.588 45.88 336.335 46.26C336.018 47.1467 335.702 48.0333 335.385 48.92C334.878 49.8067 334.53 50.7567 334.34 51.77C335.67 53.0367 337.127 54.2083 338.71 55.285C340.8 56.5517 342.89 57.8183 344.98 59.085C345.803 59.085 346.563 59.3067 347.26 59.75C347.957 60.1933 348.748 60.225 349.635 59.845C350.902 60.225 351.25 60.89 350.68 61.84L349.635 64.215C349.002 65.1017 348.78 65.9883 348.97 66.875C348.463 67.255 347.988 67.825 347.545 68.585C347.102 69.0917 346.627 69.63 346.12 70.2C345.487 70.7067 344.822 70.7383 344.125 70.295C343.555 70.295 343.112 70.0733 342.795 69.63C342.542 69.1867 342.098 69.0283 341.465 69.155C339.628 68.0783 337.823 66.8433 336.05 65.45C335.163 64.6267 334.182 64.0567 333.105 63.74C332.155 62.6633 331.015 61.8717 329.685 61.365C329.242 60.795 328.893 60.795 328.64 61.365C328.26 61.8717 328.038 62.3467 327.975 62.79C327.088 63.8667 326.297 64.7533 325.6 65.45C325.6 65.8933 325.283 66.2733 324.65 66.59C324.143 66.97 323.985 67.3183 324.175 67.635C323.352 68.395 322.465 69.2817 321.515 70.295C321.072 70.7383 320.628 71.245 320.185 71.815C319.615 72.2583 319.108 72.3217 318.665 72.005C318.095 72.005 317.588 71.72 317.145 71.15C316.765 70.58 316.322 70.2 315.815 70.01C314.548 68.5533 313.345 67.2867 312.205 66.21C311.635 65.3233 311.952 64.6583 313.155 64.215L316.29 61.365C317.367 60.035 318.538 58.8 319.805 57.66C320.248 57.0267 320.66 56.3617 321.04 55.665C321.483 54.9683 321.642 54.24 321.515 53.48C320.628 52.91 319.837 52.1183 319.14 51.105C318.317 50.155 317.462 49.4267 316.575 48.92C316.575 48.35 316.385 48.0017 316.005 47.875C315.688 47.685 315.498 47.3683 315.435 46.925C314.738 46.2917 314.738 45.7217 315.435 45.215C316.005 44.645 316.48 44.1383 316.86 43.695C317.367 43.1883 317.968 42.5867 318.665 41.89C319.488 41.0667 320.343 40.7183 321.23 40.845C323.003 42.4917 324.777 44.1067 326.55 45.69C327.057 44.6767 327.532 43.5367 327.975 42.27C328.228 41.32 328.482 40.4333 328.735 39.61C328.672 39.2933 328.672 38.9133 328.735 38.47C328.672 38.0267 328.735 37.52 328.925 36.95C329.052 36.5067 328.893 36.1583 328.45 35.905C327.31 36.1583 326.107 36.2533 324.84 36.19C324.017 35.8733 323.193 35.8733 322.37 36.19C322.243 35.8733 322.022 35.8417 321.705 36.095C321.388 36.3483 321.135 36.285 320.945 35.905C319.805 36.1583 318.57 36.2533 317.24 36.19C316.733 36.2533 316.005 36.285 315.055 36.285C314.168 36.2217 313.725 36.76 313.725 37.9C313.598 39.4833 313.598 40.7183 313.725 41.605C313.345 42.2383 313.25 42.9983 313.44 43.885C313.63 44.645 313.535 45.3417 313.155 45.975C312.902 49.2683 311.92 52.2767 310.21 55C309.957 55.76 309.577 56.425 309.07 56.995C308.69 57.1217 308.563 57.3433 308.69 57.66C308.753 57.7867 308.69 57.85 308.5 57.85C307.93 58.8633 307.265 59.845 306.505 60.795C305.935 61.4283 305.428 62.125 304.985 62.885C304.605 63.5817 304.067 64.12 303.37 64.5C301.28 66.4633 299.127 68.2367 296.91 69.82C296.657 70.3267 296.245 70.675 295.675 70.865C295.105 71.055 294.662 70.865 294.345 70.295C293.585 69.535 292.793 68.7433 291.97 67.92C291.843 67.0333 291.368 66.2417 290.545 65.545C289.722 64.785 289.152 63.9617 288.835 63.075C288.455 62.695 288.455 62.3783 288.835 62.125C289.088 61.8717 289.405 61.6183 289.785 61.365C290.925 60.795 291.97 60.13 292.92 59.37C293.3 59.4333 293.553 59.3383 293.68 59.085C293.807 58.705 293.965 58.705 294.155 59.085C295.168 58.0083 296.308 57.0267 297.575 56.14C299.222 54.6833 300.678 52.8467 301.945 50.63C302.515 49.3633 303.085 48.1283 303.655 46.925C303.465 46.545 303.497 46.1967 303.75 45.88C304.13 45.6267 304.193 45.405 303.94 45.215C304.193 44.9617 304.257 44.645 304.13 44.265C304.067 43.885 304.162 43.5683 304.415 43.315C304.415 41.985 304.542 40.75 304.795 39.61C304.478 39.4833 304.447 39.2617 304.7 38.945C305.017 38.6283 305.048 38.375 304.795 38.185C304.668 36.9183 304.763 35.7783 305.08 34.765L304.795 29.16C304.478 28.6533 304.415 28.0833 304.605 27.45C304.668 26.8167 304.51 26.2467 304.13 25.74C304.447 25.4867 304.478 25.1383 304.225 24.695C304.035 24.1883 304.098 23.745 304.415 23.365C304.098 23.175 304.035 23.0167 304.225 22.89C304.478 22.7 304.447 22.51 304.13 22.32C304.257 20.3567 304.193 18.4883 303.94 16.715C304.257 16.4617 304.32 16.1767 304.13 15.86C304.003 15.48 304.003 15.195 304.13 15.005C303.877 14.4983 303.877 13.9283 304.13 13.295C304.51 12.7883 305.017 12.5033 305.65 12.44C305.777 12.1233 305.935 12.0917 306.125 12.345C306.378 12.535 306.6 12.4717 306.79 12.155C307.93 12.4717 309.165 12.5667 310.495 12.44C311.192 12.3133 311.888 12.3133 312.585 12.44C313.472 12.44 314.327 12.44 315.15 12.44C315.593 12.6933 316.068 12.63 316.575 12.25C317.145 11.9967 317.652 12.06 318.095 12.44C319.045 12.1233 320.09 12.0283 321.23 12.155C321.673 12.4717 322.117 12.5033 322.56 12.25C323.067 11.9333 323.51 11.9017 323.89 12.155C326.36 12.2183 328.482 12.1233 330.255 11.87C330.572 12.25 330.92 12.345 331.3 12.155C331.743 11.9017 332.187 11.8067 332.63 11.87C333.073 12.25 333.58 12.3133 334.15 12.06C334.783 11.7433 335.322 11.68 335.765 11.87C336.462 11.68 337.127 11.49 337.76 11.3C338.647 10.9833 339.407 10.3817 340.04 9.495ZM285.605 6.93C286.618 6.86666 287.283 7.37333 287.6 8.44999C287.6 10.0333 287.758 11.585 288.075 13.105C287.948 13.865 287.948 14.4983 288.075 15.005C287.632 16.525 288.107 17.19 289.5 17C289.69 17.38 289.848 17.4433 289.975 17.19C290.165 16.8733 290.355 16.905 290.545 17.285L290.83 17C291.717 17.57 292.508 17.57 293.205 17C293.395 17.38 293.553 17.4433 293.68 17.19C293.997 16.8733 294.218 16.905 294.345 17.285C294.788 17.0317 295.295 17.0317 295.865 17.285C296.372 16.905 296.847 16.9367 297.29 17.38C297.797 17.8233 298.145 18.2667 298.335 18.71C298.525 20.23 298.43 21.6233 298.05 22.89C298.177 23.7133 298.113 24.5683 297.86 25.455C297.67 26.2783 297.068 26.6267 296.055 26.5C295.358 26.9433 294.567 26.9433 293.68 26.5C293.237 26.9433 292.762 27.0383 292.255 26.785C291.748 26.5317 291.273 26.595 290.83 26.975C290.387 26.8483 289.88 26.8483 289.31 26.975C288.803 26.975 288.867 27.2283 289.5 27.735C290.133 28.8117 290.798 29.6983 291.495 30.395C292.952 31.915 294.567 33.055 296.34 33.815C296.783 33.815 297.1 34.0367 297.29 34.48C297.48 34.86 297.733 34.86 298.05 34.48C298.367 34.7333 298.715 34.7333 299.095 34.48C299.665 34.2267 300.045 34.3217 300.235 34.765C300.805 35.0183 300.932 35.4617 300.615 36.095C300.172 36.6017 299.887 37.1083 299.76 37.615C299.317 37.615 299.063 37.8367 299 38.28C299 38.7233 298.905 39.1033 298.715 39.42C298.018 40.56 297.227 41.7 296.34 42.84C296.34 43.2833 296.118 43.6 295.675 43.79C295.232 43.9167 294.978 44.17 294.915 44.55C293.775 44.2967 292.73 43.79 291.78 43.03C290.957 42.46 290.07 41.89 289.12 41.32C288.803 40.8133 288.423 40.6867 287.98 40.94C287.6 41.13 287.632 41.4467 288.075 41.89C288.138 43.8533 287.98 45.69 287.6 47.4C287.98 47.59 288.043 47.875 287.79 48.255C287.537 48.5717 287.632 48.8883 288.075 49.205C287.695 49.965 287.537 50.82 287.6 51.77C287.6 52.5933 287.6 53.2583 287.6 53.765C287.79 55.3483 287.948 56.9 288.075 58.42C287.885 60.89 287.948 63.0117 288.265 64.785V70.58C288.645 70.8333 288.708 71.1183 288.455 71.435C288.265 71.6883 288.202 71.9733 288.265 72.29C288.202 73.3667 287.822 74.2533 287.125 74.95C286.238 75.0133 285.573 75.0133 285.13 74.95C284.687 75.14 284.243 75.14 283.8 74.95C283.357 74.8867 282.913 74.9817 282.47 75.235C281.837 74.9817 281.172 74.8867 280.475 74.95C279.145 74.8867 278.575 74.2217 278.765 72.955C278.448 72.4483 278.353 71.9417 278.48 71.435C278.67 70.865 278.765 70.3267 278.765 69.82C278.512 69.63 278.48 69.4083 278.67 69.155C278.797 68.775 278.702 68.49 278.385 68.3C278.892 67.2867 278.892 66.3367 278.385 65.45C278.828 64.12 278.955 62.7583 278.765 61.365C278.702 60.4783 278.702 59.8133 278.765 59.37V53.48C278.828 51.8967 278.702 50.4717 278.385 49.205C277.878 50.0283 277.308 50.82 276.675 51.58C276.105 52.15 275.44 52.8783 274.68 53.765C274.3 55.3483 273.508 56.4883 272.305 57.185C271.798 58.0717 271.355 58.0717 270.975 57.185C270.152 57.0583 269.423 56.6783 268.79 56.045C268.22 55.4117 267.587 54.9683 266.89 54.715C266.32 54.0183 265.718 53.4483 265.085 53.005C264.515 52.5617 264.135 51.9283 263.945 51.105C264.642 50.345 265.528 49.4267 266.605 48.35C267.492 47.4 268.315 46.5133 269.075 45.69C269.898 44.4867 270.722 43.3467 271.545 42.27C271.925 42.08 272.178 41.7633 272.305 41.32C272.495 40.8133 272.812 40.4333 273.255 40.18C273.255 39.4833 273.54 38.9133 274.11 38.47C274.68 38.0267 274.965 37.4567 274.965 36.76C275.725 35.4933 276.295 34.2583 276.675 33.055C276.992 32.1683 277.308 31.2817 277.625 30.395C277.435 29.8883 277.467 29.35 277.72 28.78C277.973 28.3367 278.005 27.8933 277.815 27.45C275.218 27.5767 272.527 27.4817 269.74 27.165C269.487 27.4817 269.17 27.545 268.79 27.355C268.473 27.165 268.093 27.1017 267.65 27.165C267.207 27.165 266.763 26.9433 266.32 26.5C265.877 25.9933 265.75 25.5817 265.94 25.265V19.945C265.497 19.0583 265.528 18.2983 266.035 17.665C266.605 16.9683 267.365 16.7467 268.315 17C268.505 16.7467 268.727 16.7467 268.98 17C269.36 17.19 269.613 17.095 269.74 16.715C271.197 17.0317 272.748 17.1267 274.395 17C275.218 16.9367 275.883 16.9367 276.39 17C276.643 16.81 276.928 16.81 277.245 17C277.625 17.19 277.91 17.095 278.1 16.715C277.783 15.7017 277.783 14.7517 278.1 13.865C277.847 12.915 277.752 11.8383 277.815 10.635C277.942 10.1283 277.91 9.65333 277.72 9.21C277.53 8.70333 277.657 8.32333 278.1 8.07C278.797 7.18333 279.873 6.89833 281.33 7.215C282.913 7.405 284.338 7.31 285.605 6.93Z" fill="#007FC7"/>
</svg>
