<svg width="414" height="207" viewBox="0 0 414 207" fill="none" xmlns="http://www.w3.org/2000/svg">
<path fill-rule="evenodd" clip-rule="evenodd" d="M540 83.9188L514.042 67.2386C488.083 50.5584 436.167 17.1981 384.25 23.8701C332.333 30.5422 280.417 77.2468 228.5 97.263C176.583 117.279 124.667 110.607 72.75 100.599C20.8334 90.5909 -31.0833 77.2468 -57.0416 70.5747L-83 63.9026V184H-57.0416C-31.0833 184 20.8334 184 72.75 184C124.667 184 176.583 184 228.5 184C280.417 184 332.333 184 384.25 184C436.167 184 488.083 184 514.042 184H540V83.9188Z" fill="#FFEBC5" fill-opacity="0.5"/>
<path fill-rule="evenodd" clip-rule="evenodd" d="M-708 38.0934L-656.542 33.2626C-605.083 28.4319 -502.167 18.7704 -399.25 9.10893C-296.333 -0.552549 -193.417 -10.214 -90.5 23.6011C12.4167 57.4163 115.333 134.708 218.25 149.2C321.167 163.693 424.083 115.385 475.542 91.2315L527 67.0778V212H475.542C424.083 212 321.167 212 218.25 212C115.333 212 12.4167 212 -90.5 212C-193.417 212 -296.333 212 -399.25 212C-502.167 212 -605.083 212 -656.542 212H-708V38.0934Z" fill="#49B6FF" fill-opacity="0.5"/>
<path fill-rule="evenodd" clip-rule="evenodd" d="M-31 146H-13.4C4.2 146 39.4 146 74.6 159.542C109.8 173.083 145 200.167 180.2 200.167C215.4 200.167 250.6 173.083 285.8 162.25C321 151.417 356.2 156.833 391.4 164.958C426.6 173.083 461.8 183.917 479.4 189.333L497 194.75V276H479.4C461.8 276 426.6 276 391.4 276C356.2 276 321 276 285.8 276C250.6 276 215.4 276 180.2 276C145 276 109.8 276 74.6 276C39.4 276 4.2 276 -13.4 276H-31V146Z" fill="#0099FF" fill-opacity="0.5"/>
</svg>
