<svg width="308" height="27" viewBox="0 0 308 27" fill="none" xmlns="http://www.w3.org/2000/svg">
<path d="M0.081 1.405C0.081 1.28233 0.127 1.175 0.219 1.083C0.311 0.990999 0.418333 0.944999 0.541 0.944999H8.361C9.58767 0.944999 10.6303 1.04467 11.489 1.244C12.363 1.44333 13.076 1.76533 13.628 2.21C14.18 2.65467 14.5863 3.245 14.847 3.981C15.1077 4.70167 15.238 5.591 15.238 6.649C15.238 7.64567 15.1077 8.50433 14.847 9.225C14.6017 9.94567 14.203 10.536 13.651 10.996C13.099 11.456 12.386 11.801 11.512 12.031C10.638 12.2457 9.59533 12.353 8.384 12.353H4.635V19.92C4.635 20.0427 4.58133 20.15 4.474 20.242C4.382 20.334 4.27467 20.38 4.152 20.38H0.541C0.418333 20.38 0.311 20.334 0.219 20.242C0.127 20.15 0.081 20.0427 0.081 19.92V1.405ZM5.325 2.21C4.865 2.21 4.635 2.394 4.635 2.762V11.065H8.2C8.982 11.065 9.61833 10.9423 10.109 10.697C10.5997 10.4363 10.983 10.099 11.259 9.685C11.535 9.25567 11.719 8.77267 11.811 8.236C11.9183 7.684 11.972 7.11667 11.972 6.534C11.972 5.95133 11.903 5.39933 11.765 4.878C11.627 4.34133 11.4047 3.88133 11.098 3.498C10.7913 3.09933 10.4003 2.785 9.925 2.555C9.44967 2.325 8.867 2.21 8.177 2.21H5.325ZM29.4809 18.034C29.6343 18.034 29.7953 18.011 29.9639 17.965C30.1479 17.919 30.3089 17.85 30.4469 17.758C30.6003 17.666 30.7306 17.551 30.8379 17.413C30.9606 17.275 31.0373 17.114 31.0679 16.93C31.0833 16.838 31.1293 16.7613 31.2059 16.7C31.2826 16.6387 31.3593 16.608 31.4359 16.608C31.5279 16.608 31.6046 16.6387 31.6659 16.7C31.7426 16.7613 31.7809 16.8533 31.7809 16.976C31.8269 17.7733 31.7809 18.4173 31.6429 18.908C31.5203 19.3833 31.3286 19.7513 31.0679 20.012C30.8226 20.288 30.5313 20.472 30.1939 20.564C29.8566 20.656 29.5039 20.702 29.1359 20.702H21.6149C20.0203 20.702 19.2229 19.9047 19.2229 18.31V8.811C19.2229 7.21633 20.0126 6.419 21.5919 6.419H29.3659C30.9453 6.419 31.7349 7.21633 31.7349 8.811V12.169C31.7349 13.779 30.9376 14.584 29.3429 14.584H23.7999V17.206C23.7999 17.4513 23.8843 17.6507 24.0529 17.804C24.2369 17.9573 24.4363 18.034 24.6509 18.034H29.4809ZM23.7999 13.457H26.2839C26.4986 13.457 26.6903 13.388 26.8589 13.25C27.0276 13.0967 27.1119 12.8973 27.1119 12.652V8.443C27.1119 8.213 27.0276 8.02133 26.8589 7.868C26.6903 7.69933 26.4986 7.615 26.2839 7.615H24.5589C24.3596 7.64567 24.1833 7.73767 24.0299 7.891C23.8766 8.04433 23.7999 8.22833 23.7999 8.443V13.457ZM38.1909 0.944999C38.4976 0.944999 38.7889 1.00633 39.0649 1.129C39.3409 1.23633 39.5786 1.38967 39.7779 1.589C39.9926 1.78833 40.1536 2.026 40.2609 2.302C40.3836 2.56267 40.4449 2.83867 40.4449 3.13C40.4449 3.452 40.3836 3.751 40.2609 4.027C40.1536 4.303 39.9926 4.54833 39.7779 4.763C39.5786 4.96233 39.3409 5.12333 39.0649 5.246C38.7889 5.36867 38.4976 5.43 38.1909 5.43C37.8843 5.43 37.5929 5.36867 37.3169 5.246C37.0563 5.12333 36.8186 4.96233 36.6039 4.763C36.4046 4.54833 36.2436 4.303 36.1209 4.027C36.0136 3.751 35.9599 3.452 35.9599 3.13C35.9599 2.83867 36.0136 2.56267 36.1209 2.302C36.2436 2.026 36.4046 1.78833 36.6039 1.589C36.8186 1.38967 37.0563 1.23633 37.3169 1.129C37.5929 1.00633 37.8843 0.944999 38.1909 0.944999ZM36.2129 7.063C36.2129 6.90967 36.2589 6.787 36.3509 6.695C36.4429 6.58767 36.5656 6.534 36.7189 6.534H39.7549C39.9236 6.534 40.0539 6.58767 40.1459 6.695C40.2379 6.787 40.2839 6.90967 40.2839 7.063V19.828C40.2839 19.966 40.2379 20.081 40.1459 20.173C40.0539 20.265 39.9236 20.311 39.7549 20.311H36.7189C36.5656 20.311 36.4429 20.265 36.3509 20.173C36.2589 20.081 36.2129 19.966 36.2129 19.828V7.063ZM52.2973 7.5C52.3433 7.19333 52.5043 7.04 52.7803 7.04H56.3683C56.7056 7.04 56.8666 7.224 56.8513 7.592C56.698 9.50867 56.445 11.4023 56.0923 13.273C55.7396 15.1437 55.3103 16.884 54.8043 18.494C54.2983 20.0887 53.731 21.4993 53.1023 22.726C52.4736 23.968 51.8143 24.8957 51.1243 25.509C50.7563 25.8463 50.3346 26.1147 49.8593 26.314C49.3993 26.5287 48.924 26.659 48.4333 26.705C47.958 26.7663 47.4826 26.7357 47.0073 26.613C46.5473 26.4903 46.118 26.2603 45.7193 25.923C45.336 25.5857 45.0063 25.1333 44.7303 24.566C44.4543 24.014 44.2703 23.3317 44.1783 22.519C44.163 22.335 44.186 22.1587 44.2473 21.99C44.324 21.8367 44.416 21.7293 44.5233 21.668C44.646 21.6067 44.7686 21.6143 44.8913 21.691C45.0293 21.7677 45.152 21.944 45.2593 22.22C45.474 22.8027 45.7346 23.1937 46.0413 23.393C46.348 23.6077 46.6776 23.6307 47.0303 23.462C47.3983 23.2933 47.774 22.9253 48.1573 22.358C48.556 21.7907 48.9546 21.0317 49.3533 20.081L44.2243 7.638C44.1783 7.56133 44.1783 7.46167 44.2243 7.339C44.2856 7.201 44.3776 7.132 44.5003 7.132H45.7423C45.8803 7.132 45.9876 7.155 46.0643 7.201C46.1563 7.23167 46.2406 7.33133 46.3173 7.5L50.2963 17.275C50.6796 16.0177 51.04 14.5763 51.3773 12.951C51.7146 11.3257 52.0213 9.50867 52.2973 7.5ZM72.3941 18.057C72.3941 18.5937 72.4171 19.0153 72.4631 19.322C72.5091 19.644 72.6777 19.8203 72.9691 19.851C73.0764 19.8663 73.1531 19.9123 73.1991 19.989C73.2451 20.0657 73.2604 20.15 73.2451 20.242C73.2451 20.334 73.2067 20.4107 73.1301 20.472C73.0534 20.5487 72.9461 20.5947 72.8081 20.61C71.8881 20.748 71.0831 20.7327 70.3931 20.564C69.7031 20.4107 69.1664 20.0733 68.7831 19.552C68.2924 19.9813 67.7711 20.2727 67.2191 20.426C66.6671 20.5793 66.0997 20.6483 65.5171 20.633C64.7964 20.6177 64.1141 20.518 63.4701 20.334C62.8414 20.1653 62.2817 19.828 61.7911 19.322C61.3157 18.8313 60.9324 18.149 60.6411 17.275C60.3651 16.401 60.2194 15.2587 60.2041 13.848C60.1734 11.3487 60.6181 9.501 61.5381 8.305C62.4734 7.109 63.8534 6.54167 65.6781 6.603C66.6594 6.649 67.4951 6.856 68.1851 7.224V6.465C68.1851 6.34233 68.2311 6.22733 68.3231 6.12C68.4151 6.01267 68.5377 5.959 68.6911 5.959H71.8651C72.0337 5.959 72.1641 6.01267 72.2561 6.12C72.3481 6.22733 72.3941 6.34233 72.3941 6.465V18.057ZM65.6781 17.712C66.1227 17.712 66.5597 17.6353 66.9891 17.482C67.4337 17.3133 67.8324 17.0987 68.1851 16.838V9.892C67.5717 9.386 66.8204 9.12533 65.9311 9.11C65.0111 9.11 64.3211 9.42433 63.8611 10.053C63.4011 10.6817 63.1634 11.6937 63.1481 13.089C63.1327 14.0857 63.1711 14.883 63.2631 15.481C63.3704 16.079 63.5314 16.5467 63.7461 16.884C63.9607 17.2213 64.2291 17.4437 64.5511 17.551C64.8731 17.6583 65.2487 17.712 65.6781 17.712ZM84.2193 12.077C84.2193 11.571 84.1886 11.1033 84.1273 10.674C84.0813 10.2447 83.9663 9.88433 83.7823 9.593C83.5983 9.28633 83.33 9.05633 82.9773 8.903C82.6246 8.74967 82.157 8.696 81.5743 8.742C81.375 8.75733 81.145 8.811 80.8843 8.903C80.639 8.995 80.3783 9.12533 80.1023 9.294C79.8263 9.44733 79.5503 9.639 79.2743 9.869C79.0136 10.099 78.776 10.3597 78.5613 10.651V20.15C78.5613 20.288 78.5153 20.4107 78.4233 20.518C78.3313 20.6253 78.2163 20.679 78.0783 20.679H77.1123C76.9743 20.679 76.867 20.6253 76.7903 20.518C76.7136 20.4107 76.6753 20.288 76.6753 20.15V7.132C76.6753 6.994 76.7213 6.87133 76.8133 6.764C76.9053 6.65667 77.0203 6.603 77.1583 6.603H78.0783C78.2316 6.603 78.3466 6.65667 78.4233 6.764C78.5153 6.87133 78.5613 6.994 78.5613 7.132V8.512C78.8373 8.22067 79.1593 7.96 79.5273 7.73C79.8953 7.5 80.2786 7.30067 80.6773 7.132C81.076 6.948 81.4823 6.81 81.8963 6.718C82.3103 6.61067 82.7013 6.54933 83.0693 6.534C83.7286 6.51867 84.388 6.58 85.0473 6.718C85.722 6.856 86.3276 7.11667 86.8643 7.5C87.401 7.868 87.838 8.38167 88.1753 9.041C88.528 9.685 88.7043 10.4977 88.7043 11.479V20.173C88.7043 20.311 88.6583 20.4337 88.5663 20.541C88.4897 20.6483 88.3823 20.702 88.2443 20.702H84.7483C84.6256 20.702 84.503 20.6483 84.3803 20.541C84.273 20.4337 84.2193 20.311 84.2193 20.173V12.077ZM97.438 7.201C98.082 7.201 98.6494 7.27767 99.14 7.431C99.6307 7.58433 100.06 7.79133 100.428 8.052V7.477C100.428 7.339 100.482 7.21633 100.589 7.109C100.696 7.00167 100.819 6.948 100.957 6.948H104.361C104.499 6.948 104.614 7.00167 104.706 7.109C104.813 7.21633 104.867 7.339 104.867 7.477V18.08C104.867 19.4293 104.737 20.587 104.476 21.553C104.231 22.5343 103.886 23.3547 103.441 24.014C102.996 24.6887 102.475 25.2177 101.877 25.601C101.294 25.9997 100.658 26.291 99.968 26.475C99.324 26.6437 98.611 26.7203 97.829 26.705C97.047 26.705 96.2957 26.567 95.575 26.291C94.8544 26.0303 94.2104 25.6163 93.643 25.049C93.091 24.4817 92.723 23.7303 92.539 22.795C92.4777 22.519 92.4854 22.2967 92.562 22.128C92.654 21.9747 92.7614 21.875 92.884 21.829C93.022 21.783 93.1677 21.7907 93.321 21.852C93.4744 21.9287 93.5894 22.059 93.666 22.243C93.9114 22.7643 94.218 23.1937 94.586 23.531C94.9694 23.8837 95.3834 24.1213 95.828 24.244C96.2727 24.382 96.725 24.405 97.185 24.313C97.6604 24.221 98.105 23.9987 98.519 23.646C98.933 23.2933 99.2934 22.8027 99.6 22.174C99.922 21.5607 100.16 20.794 100.313 19.874C99.9144 20.242 99.462 20.518 98.956 20.702C98.4654 20.9013 97.9594 21.0087 97.438 21.024C96.656 21.0393 95.9354 20.909 95.276 20.633C94.6167 20.357 94.057 19.897 93.597 19.253C93.137 18.6243 92.792 17.804 92.562 16.792C92.332 15.7647 92.2477 14.5073 92.309 13.02C92.3857 11.0573 92.861 9.60067 93.735 8.65C94.6244 7.684 95.8587 7.201 97.438 7.201ZM97.622 18.379C98.2507 18.379 98.8027 18.2257 99.278 17.919C99.7534 17.6123 100.137 17.2137 100.428 16.723V10.444C100.075 10.0453 99.6844 9.76167 99.255 9.593C98.8257 9.409 98.3657 9.30933 97.875 9.294C97.4764 9.294 97.1007 9.363 96.748 9.501C96.4107 9.639 96.104 9.869 95.828 10.191C95.552 10.4977 95.3297 10.904 95.161 11.41C94.9924 11.916 94.8927 12.5293 94.862 13.25C94.816 14.216 94.862 15.0287 95 15.688C95.138 16.3473 95.3374 16.8763 95.598 17.275C95.8587 17.6737 96.1577 17.9573 96.495 18.126C96.8477 18.2947 97.2234 18.379 97.622 18.379ZM116.583 2.003C116.583 1.773 116.659 1.55067 116.813 1.336C116.966 1.12133 117.25 1.014 117.664 1.014H125.438C126.649 1.014 127.669 1.21333 128.497 1.612C129.325 1.99533 129.961 2.49367 130.406 3.107C130.866 3.72033 131.142 4.40267 131.234 5.154C131.326 5.89 131.241 6.61067 130.981 7.316C130.72 8.006 130.283 8.64233 129.67 9.225C129.072 9.79233 128.313 10.214 127.393 10.49C128.435 10.6433 129.294 10.996 129.969 11.548C130.659 12.0847 131.165 12.7287 131.487 13.48C131.809 14.216 131.947 14.998 131.901 15.826C131.855 16.6387 131.617 17.39 131.188 18.08C130.774 18.7547 130.16 19.3143 129.348 19.759C128.535 20.219 127.531 20.449 126.335 20.449H117.434C117.188 20.449 116.981 20.38 116.813 20.242C116.659 20.1193 116.583 19.9047 116.583 19.598V2.003ZM121.16 18.724C121.16 18.8927 121.221 19.0383 121.344 19.161C121.466 19.2837 121.612 19.345 121.781 19.345H124.288C125.07 19.345 125.706 19.138 126.197 18.724C126.703 18.31 127.063 17.7963 127.278 17.183C127.508 16.5697 127.607 15.9027 127.577 15.182C127.546 14.4613 127.393 13.7943 127.117 13.181C126.856 12.5677 126.473 12.054 125.967 11.64C125.476 11.226 124.886 11.019 124.196 11.019H121.16V18.724ZM122.908 9.892C123.628 9.892 124.265 9.70033 124.817 9.317C125.384 8.93367 125.836 8.45067 126.174 7.868C126.526 7.28533 126.741 6.66433 126.818 6.005C126.91 5.33033 126.841 4.70167 126.611 4.119C126.396 3.53633 125.997 3.05333 125.415 2.67C124.832 2.28667 124.042 2.095 123.046 2.095H121.781C121.612 2.095 121.466 2.15633 121.344 2.279C121.221 2.40167 121.16 2.555 121.16 2.739V9.892H122.908ZM136.586 6.971C136.586 6.84833 136.632 6.73333 136.724 6.626C136.816 6.51867 136.931 6.465 137.069 6.465H138.196C138.334 6.465 138.449 6.51867 138.541 6.626C138.648 6.73333 138.702 6.84833 138.702 6.971V14.975C138.702 15.803 138.763 16.47 138.886 16.976C139.008 17.4667 139.177 17.8423 139.392 18.103C139.606 18.3637 139.867 18.5323 140.174 18.609C140.496 18.6857 140.841 18.724 141.209 18.724C142.021 18.724 142.681 18.5553 143.187 18.218C143.693 17.8653 144.114 17.4207 144.452 16.884V6.994C144.452 6.856 144.49 6.741 144.567 6.649C144.659 6.54167 144.781 6.488 144.935 6.488H148.132C148.27 6.488 148.385 6.54167 148.477 6.649C148.569 6.741 148.615 6.856 148.615 6.994V20.058C148.615 20.2267 148.569 20.357 148.477 20.449C148.385 20.5563 148.27 20.61 148.132 20.61H144.935C144.781 20.61 144.659 20.5563 144.567 20.449C144.49 20.357 144.452 20.2267 144.452 20.058V19.506C144.068 19.8893 143.624 20.196 143.118 20.426C142.627 20.656 142.021 20.771 141.301 20.771C140.427 20.771 139.683 20.6637 139.07 20.449C138.472 20.2497 137.989 19.9353 137.621 19.506C137.253 19.0767 136.984 18.54 136.816 17.896C136.662 17.252 136.586 16.5007 136.586 15.642V6.971ZM157.201 19.828C157.201 20.1653 157.024 20.334 156.672 20.334H153.521C153.168 20.334 152.992 20.1653 152.992 19.828V1.865C152.992 1.52767 153.168 1.359 153.521 1.359H156.672C157.024 1.359 157.201 1.52767 157.201 1.865V19.828ZM165.899 19.828C165.899 20.1653 165.723 20.334 165.37 20.334H162.219C161.867 20.334 161.69 20.1653 161.69 19.828V1.865C161.69 1.52767 161.867 1.359 162.219 1.359H165.37C165.723 1.359 165.899 1.52767 165.899 1.865V19.828ZM180.555 18.034C180.708 18.034 180.869 18.011 181.038 17.965C181.222 17.919 181.383 17.85 181.521 17.758C181.674 17.666 181.805 17.551 181.912 17.413C182.035 17.275 182.111 17.114 182.142 16.93C182.157 16.838 182.203 16.7613 182.28 16.7C182.357 16.6387 182.433 16.608 182.51 16.608C182.602 16.608 182.679 16.6387 182.74 16.7C182.817 16.7613 182.855 16.8533 182.855 16.976C182.901 17.7733 182.855 18.4173 182.717 18.908C182.594 19.3833 182.403 19.7513 182.142 20.012C181.897 20.288 181.605 20.472 181.268 20.564C180.931 20.656 180.578 20.702 180.21 20.702H172.689C171.094 20.702 170.297 19.9047 170.297 18.31V8.811C170.297 7.21633 171.087 6.419 172.666 6.419H180.44C182.019 6.419 182.809 7.21633 182.809 8.811V12.169C182.809 13.779 182.012 14.584 180.417 14.584H174.874V17.206C174.874 17.4513 174.958 17.6507 175.127 17.804C175.311 17.9573 175.51 18.034 175.725 18.034H180.555ZM174.874 13.457H177.358C177.573 13.457 177.764 13.388 177.933 13.25C178.102 13.0967 178.186 12.8973 178.186 12.652V8.443C178.186 8.213 178.102 8.02133 177.933 7.868C177.764 7.69933 177.573 7.615 177.358 7.615H175.633C175.434 7.64567 175.257 7.73767 175.104 7.891C174.951 8.04433 174.874 8.22833 174.874 8.443V13.457ZM192.324 2.187C192.661 2.187 192.83 2.36333 192.83 2.716V6.419H194.463C194.662 6.419 194.816 6.48033 194.923 6.603C195.03 6.71033 195.084 6.833 195.084 6.971C195.084 7.109 195.03 7.23933 194.923 7.362C194.816 7.46933 194.662 7.523 194.463 7.523H192.83V16.562C192.83 16.9913 192.838 17.3747 192.853 17.712C192.884 18.0493 192.945 18.3483 193.037 18.609C193.129 18.8543 193.259 19.0537 193.428 19.207C193.612 19.3757 193.865 19.4983 194.187 19.575C194.325 19.6057 194.425 19.667 194.486 19.759C194.547 19.851 194.563 19.9507 194.532 20.058C194.517 20.1653 194.463 20.265 194.371 20.357C194.279 20.449 194.149 20.5027 193.98 20.518C193.045 20.6253 192.232 20.61 191.542 20.472C190.852 20.334 190.277 20.0963 189.817 19.759C189.357 19.4217 189.012 18.9923 188.782 18.471C188.567 17.9497 188.46 17.3593 188.46 16.7V7.523H187.218C187.019 7.523 186.865 7.46933 186.758 7.362C186.666 7.23933 186.62 7.109 186.62 6.971C186.62 6.833 186.666 6.71033 186.758 6.603C186.865 6.48033 187.019 6.419 187.218 6.419H188.46V2.716C188.46 2.54733 188.506 2.417 188.598 2.325C188.69 2.233 188.805 2.187 188.943 2.187H192.324ZM200.884 0.944999C201.19 0.944999 201.482 1.00633 201.758 1.129C202.034 1.23633 202.271 1.38967 202.471 1.589C202.685 1.78833 202.846 2.026 202.954 2.302C203.076 2.56267 203.138 2.83867 203.138 3.13C203.138 3.452 203.076 3.751 202.954 4.027C202.846 4.303 202.685 4.54833 202.471 4.763C202.271 4.96233 202.034 5.12333 201.758 5.246C201.482 5.36867 201.19 5.43 200.884 5.43C200.577 5.43 200.286 5.36867 200.01 5.246C199.749 5.12333 199.511 4.96233 199.297 4.763C199.097 4.54833 198.936 4.303 198.814 4.027C198.706 3.751 198.653 3.452 198.653 3.13C198.653 2.83867 198.706 2.56267 198.814 2.302C198.936 2.026 199.097 1.78833 199.297 1.589C199.511 1.38967 199.749 1.23633 200.01 1.129C200.286 1.00633 200.577 0.944999 200.884 0.944999ZM198.906 7.063C198.906 6.90967 198.952 6.787 199.044 6.695C199.136 6.58767 199.258 6.534 199.412 6.534H202.448C202.616 6.534 202.747 6.58767 202.839 6.695C202.931 6.787 202.977 6.90967 202.977 7.063V19.828C202.977 19.966 202.931 20.081 202.839 20.173C202.747 20.265 202.616 20.311 202.448 20.311H199.412C199.258 20.311 199.136 20.265 199.044 20.173C198.952 20.081 198.906 19.966 198.906 19.828V7.063ZM214.668 12.077C214.668 11.571 214.637 11.1033 214.576 10.674C214.53 10.2447 214.415 9.88433 214.231 9.593C214.047 9.28633 213.779 9.05633 213.426 8.903C213.073 8.74967 212.606 8.696 212.023 8.742C211.824 8.75733 211.594 8.811 211.333 8.903C211.088 8.995 210.827 9.12533 210.551 9.294C210.275 9.44733 209.999 9.639 209.723 9.869C209.462 10.099 209.225 10.3597 209.01 10.651V20.15C209.01 20.288 208.964 20.4107 208.872 20.518C208.78 20.6253 208.665 20.679 208.527 20.679H207.561C207.423 20.679 207.316 20.6253 207.239 20.518C207.162 20.4107 207.124 20.288 207.124 20.15V7.132C207.124 6.994 207.17 6.87133 207.262 6.764C207.354 6.65667 207.469 6.603 207.607 6.603H208.527C208.68 6.603 208.795 6.65667 208.872 6.764C208.964 6.87133 209.01 6.994 209.01 7.132V8.512C209.286 8.22067 209.608 7.96 209.976 7.73C210.344 7.5 210.727 7.30067 211.126 7.132C211.525 6.948 211.931 6.81 212.345 6.718C212.759 6.61067 213.15 6.54933 213.518 6.534C214.177 6.51867 214.837 6.58 215.496 6.718C216.171 6.856 216.776 7.11667 217.313 7.5C217.85 7.868 218.287 8.38167 218.624 9.041C218.977 9.685 219.153 10.4977 219.153 11.479V20.173C219.153 20.311 219.107 20.4337 219.015 20.541C218.938 20.6483 218.831 20.702 218.693 20.702H215.197C215.074 20.702 214.952 20.6483 214.829 20.541C214.722 20.4337 214.668 20.311 214.668 20.173V12.077ZM230.831 2.003C230.831 1.773 230.907 1.55067 231.061 1.336C231.214 1.12133 231.498 1.014 231.912 1.014H239.686C240.897 1.014 241.917 1.21333 242.745 1.612C243.573 1.99533 244.209 2.49367 244.654 3.107C245.114 3.72033 245.39 4.40267 245.482 5.154C245.574 5.89 245.489 6.61067 245.229 7.316C244.968 8.006 244.531 8.64233 243.918 9.225C243.32 9.79233 242.561 10.214 241.641 10.49C242.683 10.6433 243.542 10.996 244.217 11.548C244.907 12.0847 245.413 12.7287 245.735 13.48C246.057 14.216 246.195 14.998 246.149 15.826C246.103 16.6387 245.865 17.39 245.436 18.08C245.022 18.7547 244.408 19.3143 243.596 19.759C242.783 20.219 241.779 20.449 240.583 20.449H231.682C231.436 20.449 231.229 20.38 231.061 20.242C230.907 20.1193 230.831 19.9047 230.831 19.598V2.003ZM235.408 18.724C235.408 18.8927 235.469 19.0383 235.592 19.161C235.714 19.2837 235.86 19.345 236.029 19.345H238.536C239.318 19.345 239.954 19.138 240.445 18.724C240.951 18.31 241.311 17.7963 241.526 17.183C241.756 16.5697 241.855 15.9027 241.825 15.182C241.794 14.4613 241.641 13.7943 241.365 13.181C241.104 12.5677 240.721 12.054 240.215 11.64C239.724 11.226 239.134 11.019 238.444 11.019H235.408V18.724ZM237.156 9.892C237.876 9.892 238.513 9.70033 239.065 9.317C239.632 8.93367 240.084 8.45067 240.422 7.868C240.774 7.28533 240.989 6.66433 241.066 6.005C241.158 5.33033 241.089 4.70167 240.859 4.119C240.644 3.53633 240.245 3.05333 239.663 2.67C239.08 2.28667 238.29 2.095 237.294 2.095H236.029C235.86 2.095 235.714 2.15633 235.592 2.279C235.469 2.40167 235.408 2.555 235.408 2.739V9.892H237.156ZM256.86 20.748C255.787 20.748 254.836 20.61 254.008 20.334C253.18 20.0733 252.483 19.6517 251.915 19.069C251.348 18.4863 250.919 17.7427 250.627 16.838C250.336 15.9333 250.19 14.837 250.19 13.549C250.175 11.1263 250.735 9.32467 251.869 8.144C253.019 6.948 254.683 6.35 256.86 6.35C257.903 6.35 258.838 6.488 259.666 6.764C260.494 7.02467 261.192 7.44633 261.759 8.029C262.342 8.61167 262.779 9.35533 263.07 10.26C263.377 11.1647 263.53 12.261 263.53 13.549C263.53 14.837 263.392 15.9333 263.116 16.838C262.856 17.7427 262.449 18.4863 261.897 19.069C261.345 19.6517 260.648 20.0733 259.804 20.334C258.976 20.61 257.995 20.748 256.86 20.748ZM256.883 18.034C257.435 18.0187 257.872 17.8807 258.194 17.62C258.516 17.344 258.762 16.999 258.93 16.585C259.114 16.171 259.229 15.711 259.275 15.205C259.337 14.699 259.383 14.2007 259.413 13.71C259.429 13.1887 259.413 12.6597 259.367 12.123C259.321 11.5863 259.206 11.111 259.022 10.697C258.854 10.2677 258.593 9.92267 258.24 9.662C257.903 9.386 257.443 9.248 256.86 9.248C256.293 9.248 255.841 9.37833 255.503 9.639C255.166 9.89967 254.905 10.237 254.721 10.651C254.553 11.065 254.438 11.525 254.376 12.031C254.33 12.537 254.307 13.043 254.307 13.549C254.307 14.0397 254.33 14.5533 254.376 15.09C254.422 15.6267 254.53 16.1173 254.698 16.562C254.882 16.9913 255.143 17.3517 255.48 17.643C255.833 17.919 256.301 18.0493 256.883 18.034ZM279.084 18.057C279.084 18.5937 279.107 19.0153 279.153 19.322C279.199 19.644 279.368 19.8203 279.659 19.851C279.766 19.8663 279.843 19.9123 279.889 19.989C279.935 20.0657 279.95 20.15 279.935 20.242C279.935 20.334 279.897 20.4107 279.82 20.472C279.743 20.5487 279.636 20.5947 279.498 20.61C278.578 20.748 277.773 20.7327 277.083 20.564C276.393 20.4107 275.856 20.0733 275.473 19.552C274.982 19.9813 274.461 20.2727 273.909 20.426C273.357 20.5793 272.79 20.6483 272.207 20.633C271.486 20.6177 270.804 20.518 270.16 20.334C269.531 20.1653 268.972 19.828 268.481 19.322C268.006 18.8313 267.622 18.149 267.331 17.275C267.055 16.401 266.909 15.2587 266.894 13.848C266.863 11.3487 267.308 9.501 268.228 8.305C269.163 7.109 270.543 6.54167 272.368 6.603C273.349 6.649 274.185 6.856 274.875 7.224V6.465C274.875 6.34233 274.921 6.22733 275.013 6.12C275.105 6.01267 275.228 5.959 275.381 5.959H278.555C278.724 5.959 278.854 6.01267 278.946 6.12C279.038 6.22733 279.084 6.34233 279.084 6.465V18.057ZM272.368 17.712C272.813 17.712 273.25 17.6353 273.679 17.482C274.124 17.3133 274.522 17.0987 274.875 16.838V9.892C274.262 9.386 273.51 9.12533 272.621 9.11C271.701 9.11 271.011 9.42433 270.551 10.053C270.091 10.6817 269.853 11.6937 269.838 13.089C269.823 14.0857 269.861 14.883 269.953 15.481C270.06 16.079 270.221 16.5467 270.436 16.884C270.651 17.2213 270.919 17.4437 271.241 17.551C271.563 17.6583 271.939 17.712 272.368 17.712ZM287.873 9.225C288.149 8.74967 288.441 8.34333 288.747 8.006C289.069 7.66867 289.384 7.44633 289.69 7.339C290.012 7.21633 290.327 7.21633 290.633 7.339C290.94 7.46167 291.231 7.73767 291.507 8.167C291.707 8.47367 291.753 8.74967 291.645 8.995C291.538 9.225 291.354 9.30167 291.093 9.225C290.741 9.11767 290.403 9.12533 290.081 9.248C289.759 9.37067 289.46 9.58533 289.184 9.892C288.908 10.1987 288.655 10.582 288.425 11.042C288.211 11.4867 288.027 11.985 287.873 12.537V20.219C287.873 20.357 287.82 20.4797 287.712 20.587C287.605 20.6943 287.49 20.748 287.367 20.748H284.193C284.04 20.748 283.91 20.6943 283.802 20.587C283.695 20.4797 283.641 20.357 283.641 20.219V7.132C283.641 6.97867 283.695 6.856 283.802 6.764C283.91 6.65667 284.04 6.603 284.193 6.603H287.367C287.49 6.603 287.605 6.65667 287.712 6.764C287.82 6.856 287.873 6.97867 287.873 7.132V9.225ZM307.018 19.713C307.018 19.8663 306.964 19.989 306.857 20.081C306.765 20.173 306.65 20.219 306.512 20.219H303.154C303.016 20.219 302.893 20.173 302.786 20.081C302.678 19.989 302.625 19.8663 302.625 19.713V18.862C301.766 19.828 300.769 20.3187 299.635 20.334C298.853 20.3493 298.132 20.219 297.473 19.943C296.813 19.667 296.254 19.2147 295.794 18.586C295.334 17.942 294.989 17.114 294.759 16.102C294.529 15.0747 294.444 13.8173 294.506 12.33C294.582 10.3827 295.058 8.91067 295.932 7.914C296.821 6.91733 298.055 6.419 299.635 6.419C300.279 6.419 300.846 6.50333 301.337 6.672C301.827 6.84067 302.257 7.05533 302.625 7.316V1.589C302.625 1.451 302.678 1.336 302.786 1.244C302.893 1.13667 303.016 1.083 303.154 1.083H306.512C306.65 1.083 306.765 1.13667 306.857 1.244C306.964 1.336 307.018 1.451 307.018 1.589V19.713ZM299.819 17.85C300.447 17.85 300.999 17.6813 301.475 17.344C301.95 17.0067 302.333 16.585 302.625 16.079V10.513C301.904 9.51633 301.061 8.95667 300.095 8.834C299.696 8.788 299.32 8.81867 298.968 8.926C298.615 9.03333 298.301 9.24033 298.025 9.547C297.749 9.83833 297.526 10.237 297.358 10.743C297.189 11.249 297.089 11.87 297.059 12.606C297.013 13.572 297.059 14.3923 297.197 15.067C297.335 15.7263 297.534 16.263 297.795 16.677C298.055 17.091 298.354 17.39 298.692 17.574C299.044 17.758 299.42 17.85 299.819 17.85Z" fill="#0BA4E6" fill-opacity="0.71"/>
</svg>
