<svg width="414" height="234" viewBox="0 0 414 234" fill="none" xmlns="http://www.w3.org/2000/svg">
<path fill-rule="evenodd" clip-rule="evenodd" d="M540 88.5404L514.042 64.2972C488.083 40.0539 436.167 -8.43264 384.25 1.26467C332.333 10.962 280.417 78.8431 228.5 107.935C176.583 137.027 124.667 127.33 72.75 112.784C20.8334 98.2377 -31.0833 78.8431 -57.0416 69.1458L-83 59.4485V234H-57.0416C-31.0833 234 20.8334 234 72.75 234C124.667 234 176.583 234 228.5 234C280.417 234 332.333 234 384.25 234C436.167 234 488.083 234 514.042 234H540V88.5404Z" fill="#FFEBC5"/>
</svg>
