<svg width="414" height="339" viewBox="0 0 414 339" fill="none" xmlns="http://www.w3.org/2000/svg">
<path fill-rule="evenodd" clip-rule="evenodd" d="M540 115.54L514.042 91.2972C488.083 67.0539 436.167 18.5674 384.25 28.2647C332.333 37.962 280.417 105.843 228.5 134.935C176.583 164.027 124.667 154.33 72.75 139.784C20.8334 125.238 -31.0833 105.843 -57.0416 96.1458L-83 86.4485V261H-57.0416C-31.0833 261 20.8334 261 72.75 261C124.667 261 176.583 261 228.5 261C280.417 261 332.333 261 384.25 261C436.167 261 488.083 261 514.042 261H540V115.54Z" fill="#FFEBC5"/>
<path fill-rule="evenodd" clip-rule="evenodd" d="M-708 52.1088L-656 45.5008C-604 38.8927 -500 25.6765 -396 12.4603C-292 -0.755846 -188 -13.972 -84 32.2846C20 78.5412 124 184.271 228 204.095C332 223.919 436 157.838 488 124.798L540 91.7574V290H488C436 290 332 290 228 290C124 290 20 290 -84 290C-188 290 -292 290 -396 290C-500 290 -604 290 -656 290H-708V52.1088Z" fill="#49B6FF"/>
<path fill-rule="evenodd" clip-rule="evenodd" d="M0 227H13.8C27.6 227 55.2 227 82.8 238.667C110.4 250.333 138 273.667 165.6 273.667C193.2 273.667 220.8 250.333 248.4 241C276 231.667 303.6 236.333 331.2 243.333C358.8 250.333 386.4 259.667 400.2 264.333L414 269V339H400.2C386.4 339 358.8 339 331.2 339C303.6 339 276 339 248.4 339C220.8 339 193.2 339 165.6 339C138 339 110.4 339 82.8 339C55.2 339 27.6 339 13.8 339H0V227Z" fill="#0099FF"/>
</svg>
